<?xml version="1.0" encoding="utf-8"?>
<!-- Generator: Adobe Illustrator 28.2.0, SVG Export Plug-In . SVG Version: 6.00 Build 0)  -->
<svg version="1.1" id="Layer_1" xmlns="http://www.w3.org/2000/svg" xmlns:xlink="http://www.w3.org/1999/xlink" x="0px" y="0px"
	 viewBox="444 69 980 980" style="enable-background:new 0 0 1920 1080;" xml:space="preserve">
<style type="text/css">
	.st0{fill:#FFFFFF;}
</style>
<g id="Layer_1_00000065038942266938783900000010163319462937747328_">
	<g>
		<g>
			<g>
				<path d="M1241.1,733.2c-10.3,0-20.7,0-31,0c-7.9-0.1-11.7,3.7-10.7,11.7c3.6,29.5-2.7,28,27.7,33.9
					c52.2,10.1,103.8,23.1,155.7,34.6c34.2,7.6,68.5,14.6,102.7,22.1c8.2,1.8,16.4,4.2,24.4,6.8c7.3,2.3,8,6.8,2.3,12.4
					c-60.7,61-121.4,121.9-182.1,183c-6.6,6.7-12.8,13.8-19.1,20.7c-6.6,7.1-14.3,10.4-24.3,9.2c-10.2-1.2-20.6-1.7-30.8-1.7
					c-108.9,0.4-217.8,0.9-326.7,1.4c-13.1,0.1-26.3-0.4-39.4,0.4c-9.4,0.6-17-2.1-24.3-7.6c-34.1-25.9-68.3-51.6-102.6-77.3
					c-36.7-27.6-73.5-55.2-110.3-82.7c-2.5-1.9-5.1-3.7-7.5-5.7c-7.2-6.1-6.4-10.2,2-14.5c21.9-11.2,43.7-22.8,65.6-34.2
					c25.8-13.4,51.7-26.6,77.5-39.8c0.6-0.3,1.2-0.5,1.7-0.7c13.4-5.3,20.4-12.9,19-29.5c-2.1-26.1-0.5-52.5-1.1-78.8
					c-0.1-4.8-2.4-10.5-5.7-14c-6.9-7.6-15-14.2-22.6-21.1c-4.4-4-8.6-3.4-12.1,1c-16.8,21-33.6,42-50.3,63c-0.4,0.5-0.6,1.2-1,1.6
					c-5,4.2-10.1,8.4-15.2,12.6c-1.9-5.6-4.4-11.1-5.7-16.9c-7.9-36.4-15.7-72.8-23.4-109.2c-2.1-9.8-3.8-19.7-5.7-29.5
					c-2.5-12.7-7.1-14.8-19.6-12.5c-29.6,5.3-59.3,9.4-88.9,14.5c-18.5,3.1-36.8,7.2-55.3,10.5c-3.7,0.6-7.6-0.6-11.5-0.9
					c0.5-4.2-0.1-9,1.8-12.4c24.3-44.3,48.9-88.5,73.4-132.7c1.1-1.9,2.3-3.7,3.7-5.4c5.4-6.3,3.7-11.4-2.7-15.6
					c-33.4-22-66.8-44-100.3-65.9c-7-4.6-14.8-8.2-21.5-13.2c-3-2.3-5.7-7.3-5.5-10.8c0.1-2.6,5-5.8,8.3-7
					c21.6-8.2,43.4-15.7,65-23.8c20.2-7.5,40.2-15.5,60.3-23.3c3.2-1.2,6.3-2.7,9.5-3.9c8.8-3.4,11-8.8,8.8-18.4
					c-7.2-31.7-13.2-63.7-19.8-95.6c-3.8-18.4-8.2-36.6-11.9-55c-0.8-3.9-0.9-9.9,1.3-11.9c2.3-2,8.4-1.3,11.9,0.3
					c34.1,15.7,68,31.8,101.9,47.7c13.3,6.2,26.8,12.1,40,18.6c6.6,3.2,9.4-0.7,11.6-5.4c8.6-18.1,17-36.2,25.5-54.3
					c11.1-23.8,22.2-47.5,33.2-71.3c2.1-4.5,2.6-9.9,5.3-13.9c2.5-3.7,6.7-7.2,10.8-8.3c1.7-0.5,6,5.1,7.6,8.7
					c10.8,23.5,21.2,47.2,31.7,70.9c1.8,4,3.6,8,5.2,12c3.4,8.4,6.5,9.7,14.1,4.7c12-8,23.1-17.3,35.5-24.4
					c9.2-5.3,19.7-10.3,30.1-11.4c37.6-3.8,75.5-6,113.2-8.7c8.4-0.6,14.9-3.9,19.5-11.1c3.4-5.2,6.6-11,11.2-14.9
					c6.7-5.6,14.2-10.9,22.3-14.3c10.3-4.3,21.6-6.4,32.3-9.9c9.3-3,17.7-2.8,25.6,3.7c7.1,5.8,15.3,6.5,24,4
					c13.8-4,27.8-7.5,41.5-11.8c6.8-2.1,12-0.5,15.7,4.9c14.2,20.9,28.3,42,41.8,63.4c2.1,3.4,1.9,9.3,0.7,13.5
					c-3.2,11.1-6.9,22.1-11.5,32.7c-3.5,8-2.1,13.7,4.1,19.2c10.6,9.3,21.8,18,31.4,28.3c6.3,6.8,11,15.5,15.1,23.9
					c3.5,7.2,4.9,15.5,7.9,23c3.3,8.5,3.2,16.3-1.5,24.2c-3.5,5.9-5.7,12.8-10,18c-9.1,11.2-8.6,22.1-3.4,34.9
					c6.4,15.9,11.3,32.5,16.1,49c1.6,5.5,0.8,11.7,1.1,17.6c0.6,8.9-0.2,18.2,2.1,26.5c11.6,40.6,24.1,80.9,36.2,121.3
					c2.2,7.4,4.9,14.9,5.6,22.6c1,11.8-3.7,16.5-15.6,17.6c-6.5,0.6-13.2,0.4-19.7,1.2c-11.8,1.3-16.7,8-13.8,19.5
					c2.3,9.2,3.3,17.2-3.7,25.5c-2.7,3.1-2.2,10.2-1.1,15c1.9,8.6,1.8,15.9-5.3,22.2c-6.1,5.4-8,12.2-5.4,20.4
					c2.2,6.8,3.7,13.9,4.7,21c0.5,3.8,0,8.3-1.8,11.6c-6.9,12.9-14.1,25.8-22.2,38.1c-2.1,3.3-7.5,5.8-11.6,6.1
					C1262.4,733.7,1251.7,733.2,1241.1,733.2z M1233.7,713.1c0.1-0.7,0.2-1.4,0.3-2.1c8.5,0,16.9,0,25.4,0c6.9,0,11-3.2,15-9.1
					c9.4-13.7,11.1-27.8,7.7-43.6c-2.4-11.7-4.2-13.2-16-10.9c-3.6,0.7-10-1-11.5-3.7c-4.2-7.3,2.4-18.5,11-19.9
					c6.5-1.1,13.1-1.1,19.6-1.9c6.3-0.8,8.3-5.2,7.3-10.9c-1-5.7-5.1-6.3-10-5.3c-11.3,2.4-22.6,5.3-34,6.9
					c-5,0.7-10.4-1.4-15.6-2.2c1.8-5.7,2.9-11.7,5.6-17c1.1-2.1,5.2-3,8.2-3.9c8.4-2.6,17-4.5,25.2-7.4c7-2.4,14-5.3,20.3-9.2
					c2.3-1.4,2.6-6.2,3.8-9.5c-3.5-1.2-7.1-3.6-10.6-3.5c-6.2,0.2-12.2,2.3-18.4,2.9c-11.7,1.2-20.3-5.1-20.3-16.7
					c0-9.4,2.6-18.9,5.2-28c4.6-16.1,28.3-26.1,43.8-18.6c2.3,1.1,4.9,4.7,4.7,7c-0.1,2.2-3.4,5.1-5.8,5.9
					c-3.4,1.1-7.4,0.4-11.2,0.8c-6.4,0.6-15.5,12.1-14.2,18.6c2.1,9.9,9.7,5.3,15.2,4.7c15.5-1.9,30.9-4.6,46.4-6.6
					c9.4-1.2,11.8-4.8,8.9-13.8c-3.4-10.7-6.8-21.5-10.1-32.2c-8-26-15.8-52-24-77.9c-1.3-4.1-4.6-7.7-7-11.5
					c-4.9,3.5-10.5,6.4-14.6,10.8c-2.5,2.7-3,7.4-3.8,11.4c-2.7,12.5-5,25.2-7.6,37.7c-2.3,11-8.8,15.7-17.6,13.3
					c-7.9-2.2-9-7.7-5.3-19.2c3-9.2,4.8-18.7,6.6-28.2c0.4-2.1-1.7-4.7-2.6-7.1c-2,1.9-4.8,3.5-6,5.8c-1.2,2.3-0.7,5.6-1.3,8.2
					c-1.8,6.9-3.1,14.1-6.1,20.5c-1.6,3.3-6.6,7.6-9.6,7.3c-14.8-1.4-29.9,0.7-44.1-6.6c-9.8-5.1-21-11.5-31.2-10.9
					c-22.1,1.5-31.6-13.6-42.9-26.9c-4.8-5.6-3.2-10.4,4.1-13.9c14.9-7.2,29.1-15.9,44.1-22.9c20.2-9.4,37.4-26.3,64-18.8
					c19.9,5.6,41.5,5.1,62.3,7.7c12.6,1.6,15.6-1.8,11.5-14c-8.1-24.3-16.1-48.6-24.2-72.9c-2.8-8.5-6.9-10.3-14.8-6
					c-4.9,2.6-9.8,5.5-14.4,8.7c-19.8,13.7-40.8,20-65.3,15.5c-12.7-2.3-16.6,1.5-21,13.7c-3.3,9.3-8.7,16.2-17.4,21.1
					c-24.2,13.7-48.4,27.5-72.2,41.8c-5.6,3.4-11.7,8.3-14.1,14c-4.9,11.4-7.5,23.8-10.9,35.8c-2.4,8.5-0.6,15.8,5.8,22.3
					c7.3,7.4,11.2,16.3,10.1,27.2c-0.6,6.8-0.3,13.7-0.1,20.6c0.4,12.4-5.8,16.7-17.3,11.5c-15.4-7-30.7-14-45.9-21.2
					c-8.4-4-14-10.1-15.4-19.8c-1.5-9.9-3.8-19.7-5.2-29.6c-1.1-8-5.4-12-13-13.8c-10.3-2.4-20.4-6.1-30.8-7.9
					c-4.1-0.7-10.1,1.2-12.9,4.2c-6.2,6.5-11.3,14.2-16.3,21.7c-3.7,5.7-9,11.8-9.4,18c-1.4,20.1,4.9,39.2,15.3,55.8
					c7.1,11.4,19.3,19.5,28.1,30c9.1,10.9,20,16,33.7,13.4c4.1-0.8,8.8-4,11.1-7.5c5.4-8.3,15.6-10.3,20.6-2.5
					c2.1,3.2,2.9,7.6,3.4,11.5c2.2,18.6,3.5,37.4,6.4,55.9c1,6.6,4.2,14.6,9.2,18.5c25.2,19.5,51.1,38.1,77.1,56.5
					c7.8,5.5,16.5,11.8,25.4,13.2C1160.5,704.2,1197.2,708.3,1233.7,713.1z M1144.9,728.8c0-1.1,0-2.2,0-3.3
					c-8.2-1.3-16.6-2.1-24.6-4.1c-6.9-1.7-14.4-3.2-20-7.1c-32.8-23.3-65.4-47-97.5-71.4c-5.1-3.9-9.1-11.2-10.6-17.6
					c-2.9-12.7-4-25.9-5.1-39c-0.7-7.7-3.6-11.6-11.6-11.2c-5.3,0.3-10.7-0.4-15.9,0.1c-13.4,1.3-24.5-1.3-32.7-13.4
					c-3.8-5.6-9.2-4.2-12.4,2.1c-5.4,10.9-10.6,21.9-16,32.8c-12,24.1-22.1,48.3-22.2,76.4c-0.2,60.7-2.1,121.3-3.9,182
					c-0.3,11,4.3,17.6,12.6,23.1c20.4,13.4,41,26.4,60.9,40.4c10.3,7.2,20.7,11.1,33.2,10c5.3-0.5,10.6,0,15.9,0c9.6,0,12-3,9.5-12
					c-0.5-1.8-1.2-3.6-1.6-5.4c-14.4-65.3-28.9-130.6-43.1-196c-6-27.5-11.4-55.1-16.8-82.7c-1.7-8.6,2.9-13.1,11.6-12.2
					c9.9,1,11.4,8.8,12.9,16.1c9.6,44.6,18.8,89.3,28.5,133.9c10.6,49.2,21.7,98.3,32.3,147.5c1.7,7.7,6.3,10.7,13.4,9.7
					c12.4-1.7,24.7-3.8,37.1-5.8c29.9-4.8,59.8-10,89.8-14.2c14.2-2,16.6-3.6,15.9-18.3c-1.2-26.2-2.6-52.5-4.1-78.7
					c-1-17.2-2.2-34.3-3.4-51.5c-0.7-9.7-4.1-13.3-11.6-11.8c-19.6,3.9-39.2,8-58.8,11.8c-7.8,1.5-11.2,5.5-10.5,13.7
					c1,10.9,1.3,21.8,1.6,32.8c0.3,10-4.1,15-12.5,15.1c-7.8,0.1-11.6-4.7-11.8-14.6c-0.3-16.6-0.4-33.2-1.2-49.7
					c-0.5-11,1.3-14,12.2-16c16.6-3.1,33.2-5.9,49.8-9C1138,730.8,1141.4,729.7,1144.9,728.8z M596.8,389.1c0.7,7.3,0.8,20,3.3,32.2
					c7.6,36.3,22.1,69.5,47,97.7c28.1,31.8,63.7,50.7,103.8,62.4c2.1,0.6,4.7-0.3,7.1-0.5c-0.5-2.6-0.2-5.6-1.6-7.6
					c-5.6-8.3-11.4-16.4-17.5-24.3c-13.6-17.6-13.9-21-3.1-40.3c0.6-1.1,1.1-2.2,1.9-3.3c3.3-4.8,2.8-9.1-0.8-13.7
					c-5.2-6.6-9.7-13.8-15.1-20.3c-5.9-7.1-5.3-13.1-0.5-21.1c6.3-10.5,14.6-22.3,14.6-33.5c0.1-33.4-3.6-66.8-5.4-100.2
					c-0.6-11.4-3.5-24.1,0.3-34.2c10.5-28.4,24-55.6,36.1-83.4c1.5-3.4,2.1-7.3,3.1-11c-3.9-0.3-8-1.6-11.6-0.8
					c-30.3,6.6-59,17.9-83.1,37.4C624.6,265.4,597.8,318.6,596.8,389.1z M1022.7,1045C1022.7,1045,1022.7,1045,1022.7,1045
					c42.2-0.1,84.5-0.2,126.7,0.1c8.8,0.1,15.6-2.8,21.7-8.9c23.2-23.2,46.4-46.5,69.9-69.4c42.1-41,84.5-81.8,126.8-122.6
					c5.6-5.4,5.2-9.1-2.3-11.1c-13.3-3.5-26.7-6.8-40.2-9.1c-3.6-0.6-8.7,1.5-11.6,4.1c-28.3,26-56.4,52.3-84.4,78.7
					c-32.1,30.2-64,60.7-96.3,90.7c-3.7,3.5-9.9,6-14.9,6.1c-60.7,0.8-121.4,1.1-182.1,1.2c-6,0-12.6-1.4-17.8-4.2
					c-10.4-5.6-19.9-12.9-30.1-19.1c-51.6-31.8-103.6-63.1-154.8-95.6c-14.8-9.4-27.9-13.8-42.8-2.1c-0.2,0.2-0.6,0.2-0.9,0.3
					c-7.8,3.7-8.2,8.8-1.3,13.8c14.2,10.2,28.4,20.4,42.4,30.9c48.7,36.7,97.1,73.7,146,110c5.1,3.8,12.6,5.8,19,5.9
					C938.2,1045.2,980.4,1045,1022.7,1045z M1244.1,1044.9c0-0.1,0-0.2,0-0.4c10.3,0,20.7-0.4,31,0.1c9.9,0.5,17.2-3.1,24-10.1
					c18.1-18.6,36.7-36.8,55-55.1c37.4-37.3,74.9-74.6,112.2-112.1c2.2-2.2,3.8-5.6,4.2-8.6c0.1-1-4.1-3.3-6.6-3.9
					c-15.8-3.7-31.8-6.9-47.5-10.7c-8.7-2.1-15.5-0.3-22.1,6.1c-32.4,31.8-65.1,63.1-97.6,94.7c-30.3,29.4-60.5,58.9-90.5,88.5
					c-2.3,2.2-3.3,5.7-4.9,8.6c3.3,0.9,6.7,2.6,10,2.7C1222.2,1045.1,1233.2,1044.9,1244.1,1044.9z M1166.7,933.4
					c-0.3-0.9-0.6-1.7-1-2.6c-3.2,0-6.6-0.5-9.7,0.1c-28,5.1-55.9,10.6-83.9,15.4c-15.4,2.6-30.9,5-46.5,5.7
					c-19.3,0.8-38.8-0.8-58.1-0.5c-10.5,0.2-19.5-2.4-28.1-8.3c-36.9-25.7-73.8-51.5-111.2-76.4c-12-8-19.2-16.7-17.7-32.1
					c1-10.2-3.7-12.1-12.5-7.2c-16.1,8.9-32.5,17.4-48.7,26.2c-2.8,1.5-5.1,4-7.7,6c2.3,2.7,4.1,6.2,7,8
					c13.2,8.3,26.8,15.9,40.1,24.1c45.9,27.9,91.6,56.1,137.7,83.8c5,3,11.7,4.2,17.7,4.3c54.1,0.4,108.2,0.5,162.3,0
					c6.3-0.1,13.8-2.5,18.5-6.4c12.8-10.5,24.4-22.4,36.4-33.8C1163.3,937.6,1164.9,935.4,1166.7,933.4z M758.2,375.4
					c0,3.3-0.1,8.6,0,13.9c0.2,6.4,3.7,9.1,9.1,5.5c7.5-5,14.2-10.7,13.7-21.7c-0.9-19.4-0.3-38.8-1-58.2
					c-0.4-12.2,1.2-23.3,7.7-34.1c5.3-8.7,8.2-18.9,13.2-27.9c10.6-19.1,16.1-40.9,35.8-54.9c37.2-26.4,73.1-54.5,109.8-81.6
					c3.6-2.6,8.6-4.1,13.1-4.6c21.1-2.4,42.3-4.2,63.5-6.3c2.8-0.3,6.1-0.4,8.1-1.9c3.1-2.5,5.2-6.2,7.7-9.4
					c-3.4-1.3-6.9-3.8-10.2-3.6c-35.5,2.9-71,6-106.5,9.5c-4.1,0.4-8.3,2.7-11.8,5.1c-31.5,21.4-63.1,42.7-94.2,64.7
					c-6.3,4.4-12,11-15.5,17.8c-11.9,23.4-22.3,47.5-33.9,71c-9.1,18.6-15,37.3-12.4,58.5C756.8,335.8,756.9,354.7,758.2,375.4z
					 M803,328.6c0,8.1-0.2,16.3,0.2,24.4c0.1,2.4,1.5,5.6,3.4,6.9c1.2,0.8,4.7-0.7,6.6-2c4.9-3.4,9.5-7.2,14.1-10.9
					c5.4-4.3,8.6-9.6,7.8-17c-0.9-8.7-2-17.5-1.4-26.2c0.4-5.8,2.6-12.2,5.9-17c4.4-6.3,9.9-12.6,16.4-16.6
					c10.5-6.4,22-11.1,33.4-15.8c2.4-1,7.8,0.5,9,2.6c1.5,2.6,1.7,8.1-0.1,10.3c-3.8,4.6-8.8,8.6-14.1,11.4
					c-13.2,7-24.5,15.2-26.7,31.2c-0.3,2.3,1.2,5.6,3,7.1c0.9,0.8,4.8-0.6,6.4-2c15.7-13.3,31.6-26.4,46.7-40.4
					c19.6-18.1,15.1-12.1,2.7-35.2c-1.9-3.5-7-6.7-11.1-7.3c-17.9-2.8-36-4.3-53.9-7c-6.4-0.9-10,1-12.7,6.6
					c-4.9,10.1-11,19.7-15.1,30.1C814.6,283.4,796.9,302.5,803,328.6z M1200.5,123.2c0.6-0.1,1.2-0.2,1.8-0.2
					c-1.8-10-1.5-21.2-5.9-29.9c-11.4-22.4-28.8-40-51.3-51.7c-3.9-2-9.7-2.2-14.2-1.1c-8.5,2-16.6,5.4-24.8,8.3
					c-10.2,3.7-18.9,9-24.3,19.3c-4.1,7.6-10.4,14.1-14.8,21.6c-2.9,4.9-5.8,10.8-5.8,16.2c0,8,2.1,16.1,4.2,23.9
					c2.8,10.6,8.3,12.3,17,5.6c14.3-10.9,29.2-20.3,48.3-20.1c4.9,0,10-1,14.8-2.2c2.1-0.5,5-2.4,5.4-4.1c0.4-1.6-1.5-4.6-3.2-5.9
					c-12.1-9.1-24.6-16.6-39.3-4.7c-0.7,0.6-1.8,1-2.6,0.9c-5.8-0.8-13.8,0.2-16.9-3.2c-5.4-5.8-1.8-15.2,3.9-17.9
					c12.3-5.9,25.9-9.3,39.2-13.1c1.9-0.5,4.9,2.2,7.2,3.8c8.2,5.7,15.7,12.7,24.5,17.2c21.8,11.1,31.8,26.9,24.8,51.7
					c-0.7,2.5,2.4,6,3.8,9c2.8-2.5,7.2-4.6,8-7.6C1201.5,134.1,1200.5,128.5,1200.5,123.2z M596,137.3c-1.3,2.9-3.9,5.8-3.6,8.4
					c0.4,4.6,2.9,8.9,3.8,13.4c5.5,26.3,10.7,52.6,16.4,78.8c0.8,3.6,3.5,6.7,5.2,10c2.7-2.3,5.8-4.3,7.9-7
					c15.8-20.1,35-36.2,57-49.1c2.9-1.7,4.9-5,7.3-7.5c-2.6-2.4-4.8-5.6-7.8-7c-17.6-8.5-35.5-16.6-53.3-24.9
					C618.8,147.7,608.6,143.1,596,137.3z M1036,361.3c3.5-1.2,6.6-1.9,9.2-3.4c26.4-15.4,52.8-31,79.2-46.5
					c16.1-9.4,19.1-25.1,7.8-39.4c-2.3-2.9-4-6.4-6.5-9.2c-2-2.2-4.7-3.6-7.1-5.4c-1.7,2.7-4.3,5.3-4.9,8.2
					c-1.5,7.3-1.4,15-3.4,22.2c-1.6,5.6-4,12.6-8.4,15.6c-12.3,8.5-25.5,15.9-38.9,22.5c-4.8,2.4-11.6,2.9-16.9,1.7
					c-16.7-3.9-33.5-8.1-49.6-14c-12.9-4.8-21.6-0.3-30.1,8.3c-5,5.1-4,8.1,2.6,10.9c18.4,7.8,36.6,16,55,23.9
					C1027.9,358.5,1032.1,359.8,1036,361.3z M639.2,545.4c-3.5-4.1-5.4-6.4-7.4-8.7c-15.5-17.7-28.8-36.9-37.7-58.8
					c-1.1-2.6-3.9-6.7-5.5-6.5c-2.8,0.4-6.1,3-7.5,5.6c-13.3,24-26.3,48.3-39.2,72.5c-2.6,4.9-4.2,10.4-6.2,15.6
					c5.7-0.3,11.5-0.1,17-1c25.6-4.3,51.1-8.9,76.6-13.7C632.5,549.9,635.3,547.5,639.2,545.4z M581.6,314.9
					c0.9,0.1,1.9,0.1,2.8,0.2c0.7-5.7-1.8-7.5-7.1-5.5c-4.1,1.6-7.9,3.7-12,5.2c-23.7,8.9-47.4,17.6-71.1,26.5
					c-2.3,0.9-5.4,3.2-5.7,5.1c-0.3,1.8,2.5,4.6,4.6,6c11.4,7.7,22.9,15.1,34.5,22.6c11.5,7.5,22.9,15.1,34.6,22.3
					c9,5.5,11.6,3.9,11.7-6.4c0.1-5.6-0.5-11.3,0.2-16.9C576.4,354.3,579.1,334.6,581.6,314.9z M1210.6,798.2
					c-6.8-0.5-8.1,3.7-7.8,9c1.4,24.6,2.9,49.3,4.7,73.9c0.2,2.4,1.9,6.4,3.6,6.8c2.4,0.5,6-1,8-2.8c21.6-19.8,43.1-39.9,64.6-59.9
					c5.3-5,5-9.1-1.8-10.7C1258.1,808.7,1234.3,803.6,1210.6,798.2z M838.7,438.1c0.7,1.1,1.3,2.2,1.9,3.3
					c14.7-3.3,30.7-2.4,41.5-17.3c8.6-11.9,18.8-22.5,28-33.9c5.3-6.5,11.5-7.4,19.2-5.2c15.3,4.3,30.7,8.5,46.2,11.9
					c4.8,1,10.5,0.2,15.2-1.4c5.8-2,11-5.7,16.4-8.8c5.6-3.2,6-9.1,0.4-11.6c-18.5-8.2-37.2-16.2-56.2-23.3
					c-3.5-1.3-9.5,0.4-12.7,2.9c-29.1,23-57.9,46.4-86.6,69.9C847.4,428.5,843.2,433.5,838.7,438.1z M764.1,620
					c-4.5-5.6-7.2-12-11.7-13.9c-16.4-6.8-33.4-12.2-50.2-17.9c-2.4-0.8-6.2-1.4-7.8-0.1c-1.5,1.2-1.6,5.1-1.1,7.6
					c5.5,28.5,11.2,57,17,85.5c0.5,2.6,2.2,4.9,3.4,7.4c2.6-1.3,6-2,7.8-4.1c10-12,20.4-23.8,29.3-36.6
					C756.2,639.9,759.2,630.4,764.1,620z M1002,204.4c-0.2-8.9-8.7-15.2-17.8-15.5c-25-0.8-50-0.9-74.9-2.8
					c-11.6-0.9-19.7,4.6-28.3,9.9c-1.9,1.2-3.8,4.8-3.3,6.9c0.4,1.8,3.9,3.8,6.2,4.2c8,1.2,16.1,2,24.3,2.2
					c12.7,0.3,22.3,4.7,27.7,16.9c2.2,5.1,5.6,9.7,8.5,14.5c3.3,5.4,7.4,7.5,13,2.9c13.1-10.7,26.3-21.2,39.2-32
					C999.1,209.3,1000.8,206,1002,204.4z M763.1,163.1c15.2,0.1,29.3-2.6,41.2-12.9c5.9-5.1,12.6-9.3,19.1-13.5
					c7.3-4.7,8.8-10.3,5-18.3c-7.2-15.2-13.7-30.8-20.8-46c-1-2.1-3.9-4.8-5.9-4.7c-2.1,0.1-4.9,2.7-6,4.9
					c-3.8,7.5-6.8,15.4-10.3,23c-9,19.6-18.1,39.1-27.2,58.6C755.8,159.5,756.2,163.3,763.1,163.1z M807.5,651.8
					c0-5,0.5-9.4-0.1-13.7c-2.2-16.1-2.4-31.4,14.3-40.9c1.8-1,3.1-3,4.7-4.6c7.4-7.5,13.2-7.4,20.4,0.7c3.7,4.2,7.1,8.7,10.9,12.9
					c3.8,4.2,7.5,3.7,10.9-0.7c9.8-12.6,9.5-21.7-1.1-34.2c-3.6-4.3-7.6-8.4-10.5-13.1c-4.6-7.4-9.2-7.6-16.1-2.7
					c-14.9,10.8-30.2,21.1-45.5,31.4c-8.5,5.8-15,12.1-11.6,23.8c1.1,3.8,0.4,8.1,0.5,12.1C784.6,635.9,792.3,646,807.5,651.8z
					 M928.5,161.9c4.5,1,7.5,2.1,10.6,2.2c15.9,0.3,31.9-0.5,47.7,0.7c6.9,0.5,13.5,5.1,20.4,6.9c4.6,1.2,10.3,2.4,14.3,0.8
					c6.8-2.8,12.5-8.1,18.8-12.1c11.3-7.2,4.1-16,2-24.2c-1.8-7.2-7.5-8.3-14.1-7.5c-12.1,1.3-24.2,2.8-36.3,3.6
					C968,134,946.5,141.2,928.5,161.9z M833.5,378.9c-1.2-0.9-2.4-1.8-3.6-2.7c-6.5,5.3-13.1,10.6-19.6,15.9
					c-21.3,17.6-45.7,31.8-59.7,57.2c-5.8,10.4-6.1,16.1,2.1,24.9c3.5,3.7,6.5,4.1,10.3,0.4c19.1-18.4,37.9-37.2,57.7-54.9
					C833.9,408,831,392.9,833.5,378.9z M1137.6,164.2c6.8,0,12.5,0.7,18-0.3c3.3-0.6,7.9-3.4,8.7-6.1c1.4-4.9,0.9-10.5,0.2-15.7
					c-0.8-6.5-4.5-9-11.3-7c-5,1.5-10.3,2.3-15.6,2.9c-12.1,1.5-23.8,3.8-34.4,10.9c-15.8,10.5-32.2,20.2-48.4,30.2
					c-7.7,4.7-15.4,9.3-23.1,14.1c-3.5,2.2-6.7,7.3-1,7.7c12.5,0.9,25.9,1.3,37.6-2.4c10.5-3.4,19.5-12.1,28.2-19.6
					C1109,168.4,1121.4,159.6,1137.6,164.2z M970.7,286.2c0.1,0.7,0.3,1.4,0.4,2.1c7.4-1.6,15.8-1.5,22.1-5
					c15-8.2,29.1-17.9,43.4-27.3c7.5-5,11.2-12.2,11.1-21.5c-0.1-6.6-3.1-9.5-9.5-10.2c-13.5-1.6-24,4.4-34.3,12.1
					c-18.6,14-37.6,27.6-56.3,41.6c-2,1.5-3,4.2-4.5,6.4c2.6,1.1,5.2,3.1,7.9,3.1C957.7,287.5,964.2,286.7,970.7,286.2z
					 M833.4,783.9c0.4,0,0.9,0,1.3,0c0,16.3-0.2,32.6,0.2,48.8c0.1,4.5,1.5,9.3,3.5,13.3c1.1,2.2,4.8,3,7.4,4.4
					c1.4-2.5,3.8-4.9,4-7.5c0.6-7.2,0-14.4,0.2-21.6c1.2-45.3,2.5-90.7,3.8-136c0.2-7.4-3.3-9.9-9.9-6.9
					c-7.8,3.5-10.5,9.9-10.4,18.2C833.5,725.7,833.4,754.8,833.4,783.9z M1199.6,271.2c2.2-0.4,6.6-0.2,10.1-1.9
					c14.4-6.6,28.7-13.6,42.7-21c1.2-0.6,1.5-6.7,0.2-7.9c-12.5-11.2-23.3-11.4-37.1-1.8c-6.9,4.8-13.7,10.2-23.1,7.8
					c-15.7-4-31.4-8-47.2-11.7c-2.1-0.5-5.7-0.3-6.6,1c-1,1.5-0.4,5,0.7,6.8c4,5.9,8.2,11.9,13.1,17.1c3.2,3.4,7.5,7.1,11.8,7.9
					C1175.2,269.5,1186.5,269.9,1199.6,271.2z M1097.6,218.2c-0.6-1.2-1.3-4.4-3-5c-2.1-0.8-5.5-0.2-7.6,1
					c-11.7,6.5-17.8,16.3-15.6,30.1c1.9,11.3-3.5,18.5-12.4,24c-10.3,6.4-20.8,12.6-31,19.1c-2.1,1.4-3.6,3.8-5.4,5.7
					c2.1,1.6,4,4,6.4,4.8c6.5,2.3,13.1,4.2,19.8,5.7c2.9,0.6,6.9,1,9-0.5c14.2-10.4,32.9-16.4,32.3-40.2
					C1089.8,248.4,1094.8,233.9,1097.6,218.2z M926.3,308.4c-7.3,3-16.6,5.1-24,10c-11.1,7.4-20.4,17.6-31.5,25
					c-12.8,8.6-15,20.6-14.7,34.2c0.1,2.4,1.5,5.5,3.3,6.8c1,0.7,4.5-1.1,6.3-2.5c5.7-4.4,10.9-9.3,16.5-13.8
					c17.3-13.8,34.9-27.3,51.9-41.5c4-3.3,6-9,9-13.6C938.3,311.8,933.5,310.4,926.3,308.4z M1223.5,115.3
					c-0.3,3.4-1.4,7.1-0.6,10.2c0.9,3.3,3.6,6.2,5.5,9.3c3-2.1,7.5-3.5,8.8-6.4c4.2-9,6.9-18.7,10.8-27.9c3.2-7.7,2.3-14.4-2.4-21.2
					c-5.7-8.2-11.2-16.5-16.5-24.9c-10.8-17.1-10.7-17.3-29.3-12.4c-3.2,0.9-6,3.6-9,5.5c1.9,2.7,3.7,5.4,5.6,8
					c0.5,0.7,1.5,1.1,2.1,1.8C1214.7,73.3,1232.6,88.5,1223.5,115.3z M816.3,461.4c-6.3-0.1-28.2,16.1-28.7,21.9
					c-0.2,1.8,2.3,5.2,4.2,5.7c10.3,2.6,15.3,10.4,19.2,19.1c3.2,7.1,5.1,14.8,8.3,21.9c1.3,2.9,4.5,6.7,7.2,7
					c6.3,0.8,17-13.7,15.7-20.3c-2.7-13.8-5.5-27.6-8.4-41.3C832,467,824.9,461.5,816.3,461.4z M1150.1,187.6
					c-7.6,0-14.2-0.6-20.6,0.1c-8.8,1-11.6,7.9-5.9,14.6c2.8,3.3,7.3,6,11.6,7c17.9,4.3,35.9,8.1,53.9,11.7c4.1,0.8,8.8,1.1,12.8,0
					c4.9-1.3,6.7-6,1.9-9.1C1186.8,201,1174,180.6,1150.1,187.6z M752.9,523.7c2.4,5,3.4,7.9,5.1,10.4c5.5,8.3,11.1,16.5,16.8,24.6
					c3.5,5,7.4,8.4,14,5c10.2-5.2,15.8-12.4,13-18.7c-4.2-9.7-8-20-14.5-28c-3.9-4.8-13.4-8.6-19.2-7.4
					C762.3,510.9,757.8,518.9,752.9,523.7z M1266.2,388c-0.1-1.7-0.2-3.5-0.3-5.2c-21.6-3.1-44.3-8.9-64.9-2.9
					c-19.5,5.7-38.7,16.5-57,31.5c4.8,1.4,6.5,2.1,8.2,2.5c12,2.1,21.1-4.4,30.2-10.5c13.1-8.8,26.8-14.4,43.1-12.8
					c9.3,0.9,18.7,0.7,28.1,0.3C1257.8,390.6,1262,389,1266.2,388z M1022.7,406.9c-1.1-0.6-2.2-1.3-3.3-1.9c-6,4.2-12.3,8.1-18,12.7
					c-1.8,1.5-3.1,4.9-3,7.4c0.7,18.8,3.7,36.6,25.4,42.9c3.2,0.9,6.9,0.2,10.3,0.2c-1-3.3-1.7-6.7-3-9.9c-0.5-1.3-2-2.3-3.2-3.3
					c-14.9-13.5-15.8-17.9-7.8-37.2C1021.4,414.4,1021.8,410.6,1022.7,406.9z M1232.1,158.5c-0.3-0.9-0.7-1.9-1-2.8
					c-9,3.6-18.2,6.8-26.8,11.1c-2.8,1.4-4.1,5.7-6.1,8.7c3.8,0.9,7.8,2.8,11.5,2.4c8.2-0.7,16.3-3.4,24.5-3.7
					c7.1-0.3,14.2,1.8,21.4,2.4c2.2,0.2,4.5-1,6.7-1.5c-0.9-2.4-1.2-5.5-2.8-7.1C1251.9,160.5,1243,156.7,1232.1,158.5z
					 M1279.6,199.8c-10.1-0.5-13.5,4.2-9.2,11.7c4.4,7.8,9.9,15.1,15.6,22c2.1,2.5,6.5,3.1,9.9,4.6c1.4-3.5,4.2-7.2,3.8-10.6
					c-0.7-5.4-3.8-10.5-5.3-15.8C1291.9,203.1,1286.2,199.5,1279.6,199.8z M830.3,643.9c0.8,2.4,2.1,6.9,3.6,11.5
					c4.5-1.8,9-3.4,13.4-5.3c1.7-0.7,4.2-1.7,4.5-3.1c1.1-4.4,3.5-10.2,1.7-13.3c-3.1-5.5-8.6-9.7-13.7-13.8
					c-5.6-4.5-8.8-1.1-9.4,4.7C829.9,630.1,830.3,635.8,830.3,643.9z M854.9,466.8c2.8,12,4.9,22.4,7.8,32.6c0.8,2.9,4.3,5,6.6,7.4
					c2.3-2.6,6.8-5.5,6.5-7.8c-1.3-11.6-3.5-23.3-6.4-34.6c-0.6-2.3-6-5-8.7-4.6C858.3,460.2,856.6,464.7,854.9,466.8z M900.4,540.4
					c0.7-8.7-8.9-19.1-14.4-16.9c-5.3,2.1-10.9,5.5-13.9,10c-1.3,2,3.3,8.2,5.6,12.3c1.9,3.2,3.9,6.6,6.7,8.9
					c1.8,1.4,6.8,2.2,7.4,1.3C895.5,550.6,898.2,544.6,900.4,540.4z M1211.9,431.3c2.3-0.7,6.2-0.8,7.9-2.7c2.5-3,3.4-7.3,4.9-11
					c-3.5-1.1-6.9-3.1-10.4-3.1c-3.6,0-7.4,1.6-10.6,3.3c-2.6,1.4-4.6,4.2-6.8,6.4c2.6,2,4.9,4.3,7.8,5.9
					C1206.6,431,1209,430.8,1211.9,431.3z M1242.2,209.4c1.1-1.4,2.2-2.7,3.2-4.1c-4-3.5-7.8-7.3-12-10.4c-0.9-0.6-4.5,0.9-5.3,2.3
					c-0.7,1.1,0.4,4.4,1.7,5.3C1233.6,205.2,1238,207.1,1242.2,209.4z"/>
				<path class="st0" d="M1233.7,713.1c-36.5-4.8-73.2-8.9-109.5-14.8c-9-1.4-17.6-7.8-25.4-13.2c-26.1-18.4-51.9-37-77.1-56.5
					c-5-3.8-8.2-11.9-9.2-18.5c-2.9-18.5-4.2-37.3-6.4-55.9c-0.5-3.9-1.3-8.3-3.4-11.5c-5-7.8-15.3-5.8-20.6,2.5
					c-2.3,3.5-7,6.8-11.1,7.5c-13.7,2.6-24.6-2.5-33.7-13.4c-8.8-10.5-21-18.6-28.1-30c-10.4-16.6-16.6-35.8-15.3-55.8
					c0.4-6.2,5.7-12.3,9.4-18c5-7.6,10-15.3,16.3-21.7c2.8-2.9,8.9-4.9,12.9-4.2c10.4,1.7,20.5,5.5,30.8,7.9
					c7.7,1.8,11.9,5.8,13,13.8c1.4,9.9,3.7,19.7,5.2,29.6c1.4,9.7,7.1,15.8,15.4,19.8c15.3,7.2,30.6,14.3,45.9,21.2
					c11.5,5.2,17.7,0.9,17.3-11.5c-0.2-6.9-0.6-13.8,0.1-20.6c1-10.9-2.9-19.8-10.1-27.2c-6.4-6.5-8.2-13.8-5.8-22.3
					c3.4-12,6-24.4,10.9-35.8c2.4-5.7,8.5-10.6,14.1-14c23.8-14.4,48-28.2,72.2-41.8c8.7-4.9,14-11.8,17.4-21.1
					c4.4-12.2,8.3-16.1,21-13.7c24.5,4.5,45.5-1.8,65.3-15.5c4.6-3.2,9.5-6.1,14.4-8.7c8-4.2,12-2.4,14.8,6
					c8,24.3,16.1,48.6,24.2,72.9c4,12.2,1.1,15.5-11.5,14c-20.8-2.6-42.4-2.1-62.3-7.7c-26.6-7.5-43.8,9.4-64,18.8
					c-15,7-29.2,15.7-44.1,22.9c-7.3,3.6-8.9,8.3-4.1,13.9c11.3,13.3,20.8,28.3,42.9,26.9c10.2-0.7,21.4,5.8,31.2,10.9
					c14.2,7.3,29.4,5.2,44.1,6.6c3.1,0.3,8.1-3.9,9.6-7.3c3-6.4,4.3-13.6,6.1-20.5c0.7-2.7,0.1-5.9,1.3-8.2c1.2-2.3,3.9-3.9,6-5.8
					c0.9,2.4,3,5,2.6,7.1c-1.8,9.5-3.7,19.1-6.6,28.2c-3.7,11.5-2.7,17,5.3,19.2c8.8,2.4,15.3-2.3,17.6-13.3
					c2.7-12.5,4.9-25.2,7.6-37.7c0.8-3.9,1.3-8.7,3.8-11.4c4.1-4.3,9.7-7.2,14.6-10.8c2.4,3.8,5.7,7.3,7,11.5
					c8.2,25.9,16,52,24,77.9c3.3,10.8,6.6,21.5,10.1,32.2c2.9,9,0.5,12.6-8.9,13.8c-15.5,2.1-30.9,4.7-46.4,6.6
					c-5.5,0.7-13.1,5.3-15.2-4.7c-1.3-6.5,7.8-17.9,14.2-18.6c3.7-0.4,7.7,0.3,11.2-0.8c2.4-0.8,5.7-3.7,5.8-5.9
					c0.1-2.3-2.4-5.9-4.7-7c-15.5-7.5-39.2,2.5-43.8,18.6c-2.6,9.1-5.2,18.7-5.2,28c0,11.6,8.7,17.9,20.3,16.7
					c6.2-0.6,12.2-2.7,18.4-2.9c3.5-0.1,7,2.2,10.6,3.5c-1.2,3.3-1.5,8.1-3.8,9.5c-6.3,3.9-13.3,6.8-20.3,9.2
					c-8.2,2.9-16.8,4.8-25.2,7.4c-2.9,0.9-7.1,1.8-8.2,3.9c-2.6,5.3-3.8,11.3-5.6,17c5.2,0.8,10.6,2.9,15.6,2.2
					c11.4-1.6,22.7-4.5,34-6.9c4.9-1.1,9-0.4,10,5.3c1,5.7-1,10.1-7.3,10.9c-6.5,0.9-13.1,0.9-19.6,1.9c-8.6,1.4-15.2,12.5-11,19.9
					c1.5,2.7,7.9,4.4,11.5,3.7c11.8-2.3,13.6-0.8,16,10.9c3.3,15.9,1.6,30-7.7,43.6c-4,5.9-8.1,9.1-15,9.1c-8.5-0.1-16.9,0-25.4,0
					C1233.9,711.7,1233.8,712.4,1233.7,713.1z M963.8,528.9c8.6,0.8,18,2.1,20.9-8.8c3.7-13.7,3.3-27.4-7.1-38.7
					c-7.1-7.7-9.6-16.3-7.5-26.7c1.6-7.6-0.4-14.7-7.5-18.7c-7.8-4.4-16.1-8.3-24.4-11.7c-8.8-3.6-12.9-1.4-16.9,7.5
					c-3.1,6.8-6.9,13.4-9,20.5c-1.8,6.1-2.6,12.8-2,19.1c0.7,6.7,3.3,13.3,5.4,19.8C922.8,514.5,939.7,527.6,963.8,528.9z"/>
				<path class="st0" d="M1144.9,728.8c-3.5,0.9-6.9,2-10.5,2.6c-16.6,3.1-33.2,5.9-49.8,9c-10.9,2-12.7,5-12.2,16
					c0.7,16.6,0.9,33.1,1.2,49.7c0.2,9.9,3.9,14.7,11.8,14.6c8.3-0.1,12.7-5.2,12.5-15.1c-0.3-10.9-0.7-21.9-1.6-32.8
					c-0.7-8.2,2.7-12.2,10.5-13.7c19.6-3.8,39.2-7.9,58.8-11.8c7.5-1.5,11,2.1,11.6,11.8c1.2,17.2,2.4,34.3,3.4,51.5
					c1.5,26.2,2.8,52.5,4.1,78.7c0.7,14.6-1.7,16.2-15.9,18.3c-30,4.3-59.9,9.5-89.8,14.2c-12.4,2-24.7,4.1-37.1,5.8
					c-7.2,1-11.8-2-13.4-9.7c-10.7-49.2-21.7-98.3-32.3-147.5c-9.6-44.6-18.9-89.3-28.5-133.9c-1.6-7.3-3.1-15.1-12.9-16.1
					c-8.7-0.8-13.3,3.6-11.6,12.2c5.5,27.6,10.8,55.2,16.8,82.7c14.2,65.4,28.7,130.7,43.1,196c0.4,1.8,1.1,3.6,1.6,5.4
					c2.5,9,0.1,12-9.5,12c-5.3,0-10.7-0.5-15.9,0c-12.5,1.1-23-2.7-33.2-10c-19.9-14-40.5-27-60.9-40.4c-8.4-5.5-13-12.1-12.6-23.1
					c1.8-60.7,3.7-121.3,3.9-182c0.1-28.1,10.2-52.3,22.2-76.4c5.4-10.9,10.7-21.9,16-32.8c3.1-6.3,8.5-7.7,12.4-2.1
					c8.2,12,19.4,14.7,32.7,13.4c5.3-0.5,10.6,0.2,15.9-0.1c8-0.4,11,3.5,11.6,11.2c1.1,13.1,2.2,26.3,5.1,39
					c1.4,6.4,5.5,13.7,10.6,17.6c32.1,24.3,64.7,48.1,97.5,71.4c5.6,4,13.1,5.5,20,7.1c8.1,1.9,16.4,2.8,24.6,4.1
					C1144.9,726.6,1144.9,727.7,1144.9,728.8z"/>
				<path class="st0" d="M596.8,389.1c1-70.6,27.8-123.7,78.4-164.5c24.1-19.5,52.8-30.7,83.1-37.4c3.6-0.8,7.7,0.5,11.6,0.8
					c-1,3.7-1.6,7.5-3.1,11c-12.1,27.8-25.6,55-36.1,83.4c-3.7,10.1-0.9,22.7-0.3,34.2c1.9,33.4,5.5,66.8,5.4,100.2
					c0,11.2-8.3,23.1-14.6,33.5c-4.8,8-5.4,14,0.5,21.1c5.3,6.5,9.9,13.7,15.1,20.3c3.6,4.6,4.1,8.9,0.8,13.7
					c-0.7,1-1.2,2.2-1.9,3.3c-10.8,19.4-10.5,22.8,3.1,40.3c6.1,7.9,11.9,16,17.5,24.3c1.3,2,1.1,5,1.6,7.6c-2.4,0.2-5,1.2-7.1,0.5
					c-40-11.7-75.7-30.6-103.8-62.4c-24.9-28.2-39.4-61.4-47-97.7C597.5,409.2,597.5,396.5,596.8,389.1z"/>
				<path class="st0" d="M1022.7,1045c-42.2,0-84.5,0.2-126.7-0.3c-6.4-0.1-13.9-2.1-19-5.9c-48.9-36.4-97.4-73.4-146-110
					c-14-10.5-28.2-20.7-42.4-30.9c-6.9-5-6.6-10.1,1.3-13.8c0.3-0.1,0.6-0.2,0.9-0.3c14.9-11.7,28-7.3,42.8,2.1
					c51.2,32.5,103.2,63.8,154.8,95.6c10.1,6.2,19.6,13.5,30.1,19.1c5.2,2.8,11.8,4.3,17.8,4.2c60.7-0.1,121.4-0.4,182.1-1.2
					c5-0.1,11.2-2.6,14.9-6.1c32.4-30,64.2-60.5,96.3-90.7c28-26.4,56.1-52.7,84.4-78.7c2.8-2.6,8-4.7,11.6-4.1
					c13.5,2.3,26.9,5.6,40.2,9.1c7.5,2,7.9,5.7,2.3,11.1c-42.3,40.8-84.7,81.6-126.8,122.6c-23.5,22.9-46.7,46.1-69.9,69.4
					c-6.1,6.1-12.9,8.9-21.7,8.9C1107.1,1044.8,1064.9,1045,1022.7,1045C1022.7,1045,1022.7,1045,1022.7,1045z"/>
				<path class="st0" d="M1244.1,1044.9c-10.9,0-21.9,0.2-32.8-0.1c-3.4-0.1-6.7-1.7-10-2.7c1.6-2.9,2.6-6.4,4.9-8.6
					c30.1-29.6,60.3-59.1,90.5-88.5c32.5-31.6,65.3-63,97.6-94.7c6.6-6.5,13.4-8.2,22.1-6.1c15.8,3.8,31.7,7,47.5,10.7
					c2.5,0.6,6.7,2.9,6.6,3.9c-0.4,3-2,6.4-4.2,8.6c-37.3,37.5-74.8,74.8-112.2,112.1c-18.4,18.3-37,36.5-55,55.1
					c-6.8,7-14.2,10.6-24,10.1c-10.3-0.6-20.6-0.1-31-0.1C1244.1,1044.6,1244.1,1044.7,1244.1,1044.9z"/>
				<path class="st0" d="M1166.7,933.4c-1.8,2-3.5,4.2-5.4,6.1c-12,11.4-23.6,23.3-36.4,33.8c-4.8,3.9-12.3,6.4-18.5,6.4
					c-54.1,0.4-108.2,0.3-162.3,0c-5.9,0-12.7-1.3-17.7-4.3c-46.1-27.6-91.8-55.8-137.7-83.8c-13.3-8.1-26.9-15.8-40.1-24.1
					c-2.9-1.8-4.7-5.3-7-8c2.6-2,4.9-4.5,7.7-6c16.2-8.8,32.6-17.3,48.7-26.2c8.8-4.9,13.5-3,12.5,7.2c-1.5,15.4,5.6,24,17.7,32.1
					c37.4,25,74.3,50.8,111.2,76.4c8.6,6,17.6,8.5,28.1,8.3c19.4-0.3,38.8,1.3,58.1,0.5c15.6-0.6,31.1-3,46.5-5.7
					c28-4.8,55.9-10.3,83.9-15.4c3.1-0.6,6.5-0.1,9.7-0.1C1166.1,931.7,1166.4,932.5,1166.7,933.4z"/>
				<path class="st0" d="M758.2,375.4c-1.2-20.8-1.3-39.6-3.7-58.2c-2.7-21.3,3.2-40,12.4-58.5c11.6-23.5,22-47.6,33.9-71
					c3.5-6.8,9.2-13.4,15.5-17.8c31.1-22,62.6-43.3,94.2-64.7c3.5-2.4,7.7-4.7,11.8-5.1c35.5-3.5,71-6.7,106.5-9.5
					c3.3-0.3,6.8,2.3,10.2,3.6c-2.5,3.2-4.6,6.9-7.7,9.4c-1.9,1.6-5.3,1.7-8.1,1.9c-21.2,2.1-42.3,3.9-63.5,6.3
					c-4.5,0.5-9.5,2-13.1,4.6c-36.7,27.1-72.6,55.3-109.8,81.6c-19.7,14-25.2,35.8-35.8,54.9c-5,9-7.9,19.2-13.2,27.9
					c-6.5,10.7-8.2,21.9-7.7,34.1c0.7,19.4,0.1,38.8,1,58.2c0.5,11-6.1,16.7-13.7,21.7c-5.4,3.6-8.9,0.9-9.1-5.5
					C758,384.1,758.2,378.7,758.2,375.4z"/>
				<path class="st0" d="M803,328.6c-6-26.2,11.7-45.2,20.3-66.8c4.2-10.4,10.2-20,15.1-30.1c2.7-5.6,6.3-7.5,12.7-6.6
					c17.9,2.6,36,4.2,53.9,7c4.1,0.6,9.2,3.8,11.1,7.3c12.4,23.1,16.8,17.1-2.7,35.2c-15.1,14-31,27.1-46.7,40.4
					c-1.7,1.4-5.5,2.8-6.4,2c-1.8-1.6-3.3-4.8-3-7.1c2.1-16,13.5-24.2,26.7-31.2c5.3-2.8,10.3-6.8,14.1-11.4
					c1.8-2.2,1.7-7.6,0.1-10.3c-1.2-2-6.6-3.5-9-2.6c-11.4,4.6-22.9,9.4-33.4,15.8c-6.5,3.9-12,10.2-16.4,16.6
					c-3.3,4.8-5.5,11.2-5.9,17c-0.6,8.7,0.4,17.5,1.4,26.2c0.8,7.5-2.4,12.7-7.8,17c-4.6,3.7-9.2,7.5-14.1,10.9
					c-1.9,1.3-5.3,2.8-6.6,2c-1.9-1.3-3.3-4.4-3.4-6.9C802.7,344.9,803,336.8,803,328.6z"/>
				<path class="st0" d="M1200.5,123.2c0,5.3,1,10.9-0.4,15.8c-0.8,3-5.2,5.1-8,7.6c-1.3-3-4.5-6.6-3.8-9c7-24.8-3.1-40.5-24.8-51.7
					c-8.8-4.5-16.3-11.5-24.5-17.2c-2.3-1.6-5.3-4.4-7.2-3.8c-13.2,3.8-26.8,7.2-39.2,13.1c-5.7,2.7-9.2,12.2-3.9,17.9
					c3.2,3.4,11.1,2.3,16.9,3.2c0.8,0.1,1.9-0.3,2.6-0.9c14.7-11.8,27.2-4.3,39.3,4.7c1.7,1.3,3.6,4.2,3.2,5.9
					c-0.4,1.8-3.3,3.6-5.4,4.1c-4.8,1.2-9.9,2.2-14.8,2.2c-19-0.1-33.9,9.1-48.3,20.1c-8.7,6.6-14.2,5-17-5.6
					c-2.1-7.8-4.2-15.9-4.2-23.9c0-5.4,2.9-11.3,5.8-16.2c4.4-7.5,10.7-13.9,14.8-21.6c5.5-10.2,14.1-15.6,24.3-19.3
					c8.2-3,16.4-6.4,24.8-8.3c4.5-1,10.2-0.9,14.2,1.1c22.6,11.7,39.9,29.3,51.3,51.7c4.5,8.7,4.1,19.9,5.9,29.9
					C1201.7,123,1201.1,123.1,1200.5,123.2z"/>
				<path class="st0" d="M596,137.3c12.6,5.8,22.8,10.4,32.9,15c17.8,8.2,35.6,16.4,53.3,24.9c3,1.5,5.2,4.7,7.8,7
					c-2.4,2.6-4.4,5.8-7.3,7.5c-22,13-41.2,29-57,49.1c-2.2,2.7-5.3,4.7-7.9,7c-1.8-3.3-4.5-6.5-5.2-10
					c-5.6-26.2-10.8-52.5-16.4-78.8c-1-4.6-3.4-8.9-3.8-13.4C592.2,143.2,594.7,140.3,596,137.3z"/>
				<path class="st0" d="M1036,361.3c-4-1.4-8.1-2.7-12.1-4.5c-18.3-7.9-36.5-16.2-55-23.9c-6.6-2.8-7.6-5.8-2.6-10.9
					c8.4-8.6,17.1-13.1,30.1-8.3c16.1,5.9,32.9,10.1,49.6,14c5.3,1.2,12.1,0.7,16.9-1.7c13.4-6.6,26.6-14,38.9-22.5
					c4.4-3,6.8-10,8.4-15.6c2-7.1,1.9-14.9,3.4-22.2c0.6-2.9,3.2-5.5,4.9-8.2c2.4,1.8,5.2,3.2,7.1,5.4c2.5,2.8,4.2,6.2,6.5,9.2
					c11.3,14.2,8.2,30-7.8,39.4c-26.4,15.5-52.7,31.1-79.2,46.5C1042.6,359.4,1039.5,360,1036,361.3z"/>
				<path class="st0" d="M639.2,545.4c-4,2.1-6.7,4.5-9.8,5c-25.5,4.8-51.1,9.3-76.6,13.7c-5.6,0.9-11.4,0.7-17,1
					c2.1-5.2,3.6-10.7,6.2-15.6c12.9-24.3,25.9-48.5,39.2-72.5c1.4-2.6,4.8-5.2,7.5-5.6c1.5-0.2,4.4,3.8,5.5,6.5
					c8.9,22,22.2,41.1,37.7,58.8C633.8,539,635.8,541.4,639.2,545.4z"/>
				<path class="st0" d="M581.6,314.9c-2.6,19.7-5.3,39.4-7.6,59.2c-0.7,5.6-0.1,11.2-0.2,16.9c-0.1,10.3-2.7,11.9-11.7,6.4
					c-11.7-7.1-23.1-14.8-34.6-22.3c-11.5-7.5-23.1-14.9-34.5-22.6c-2.1-1.4-4.9-4.2-4.6-6c0.3-2,3.4-4.3,5.7-5.1
					c23.6-9,47.4-17.7,71.1-26.5c4.1-1.5,7.9-3.6,12-5.2c5.3-2,7.8-0.1,7.1,5.5C583.5,315,582.6,315,581.6,314.9z"/>
				<path class="st0" d="M1210.6,798.2c23.7,5.3,47.5,10.5,71.2,16.2c6.8,1.7,7.2,5.7,1.8,10.7c-21.5,20-42.9,40-64.6,59.9
					c-2,1.8-5.6,3.3-8,2.8c-1.6-0.3-3.4-4.3-3.6-6.8c-1.8-24.6-3.3-49.2-4.7-73.9C1202.5,802,1203.9,797.7,1210.6,798.2z"/>
				<path class="st0" d="M838.7,438.1c4.5-4.6,8.7-9.6,13.6-13.6c28.7-23.5,57.5-46.9,86.6-69.9c3.1-2.5,9.2-4.2,12.7-2.9
					c19,7.1,37.6,15.1,56.2,23.3c5.7,2.5,5.2,8.4-0.4,11.6c-5.4,3.1-10.6,6.8-16.4,8.8c-4.7,1.6-10.5,2.5-15.2,1.4
					c-15.5-3.4-30.9-7.6-46.2-11.9c-7.8-2.2-14-1.3-19.2,5.2c-9.3,11.4-19.5,22-28,33.9c-10.8,14.9-26.7,14-41.5,17.3
					C840,440.3,839.3,439.2,838.7,438.1z"/>
				<path class="st0" d="M764.1,620c-4.9,10.4-8,19.9-13.4,27.7c-8.9,12.8-19.2,24.6-29.3,36.6c-1.7,2.1-5.1,2.7-7.8,4.1
					c-1.1-2.4-2.8-4.8-3.4-7.4c-5.8-28.5-11.5-56.9-17-85.5c-0.5-2.5-0.4-6.4,1.1-7.6c1.6-1.3,5.3-0.7,7.8,0.1
					c16.8,5.7,33.8,11.1,50.2,17.9C756.9,608,759.6,614.4,764.1,620z"/>
				<path class="st0" d="M1002,204.4c-1.2,1.5-2.9,4.9-5.6,7.1c-12.9,10.8-26.1,21.3-39.2,32c-5.6,4.6-9.7,2.5-13-2.9
					c-2.9-4.8-6.3-9.4-8.5-14.5c-5.4-12.2-15-16.6-27.7-16.9c-8.1-0.2-16.2-1.1-24.3-2.2c-2.3-0.3-5.8-2.4-6.2-4.2
					c-0.4-2,1.4-5.7,3.3-6.9c8.6-5.3,16.7-10.8,28.3-9.9c24.9,2,50,2,74.9,2.8C993.3,189.2,1001.8,195.6,1002,204.4z"/>
				<path class="st0" d="M763.1,163.1c-7,0.3-7.3-3.5-4.8-8.9c9.1-19.5,18.2-39,27.2-58.6c3.5-7.7,6.6-15.5,10.3-23
					c1.1-2.2,3.9-4.8,6-4.9c1.9-0.1,4.9,2.6,5.9,4.7c7.1,15.3,13.6,30.8,20.8,46c3.8,8,2.3,13.6-5,18.3c-6.6,4.2-13.3,8.4-19.1,13.5
					C792.4,160.5,778.3,163.1,763.1,163.1z"/>
				<path class="st0" d="M807.5,651.8c-15.3-5.8-22.9-15.9-23.3-28.9c-0.1-4.1,0.6-8.4-0.5-12.1c-3.4-11.7,3.1-18,11.6-23.8
					c15.3-10.3,30.5-20.6,45.5-31.4c6.8-5,11.5-4.8,16.1,2.7c2.9,4.7,6.9,8.9,10.5,13.1c10.6,12.5,11,21.6,1.1,34.2
					c-3.4,4.4-7.1,5-10.9,0.7c-3.8-4.2-7.2-8.7-10.9-12.9c-7.2-8.1-12.9-8.2-20.4-0.7c-1.5,1.6-2.8,3.5-4.7,4.6
					c-16.7,9.5-16.5,24.8-14.3,40.9C808,642.4,807.5,646.8,807.5,651.8z"/>
				<path class="st0" d="M928.5,161.9c18-20.7,39.5-28,63.5-29.7c12.1-0.9,24.2-2.3,36.3-3.6c6.5-0.7,12.3,0.3,14.1,7.5
					c2,8.1,9.2,17-2,24.2c-6.3,4-12,9.3-18.8,12.1c-4,1.7-9.7,0.4-14.3-0.8c-6.9-1.8-13.5-6.4-20.4-6.9c-15.8-1.1-31.8-0.4-47.7-0.7
					C936.1,164.1,933,162.9,928.5,161.9z"/>
				<path class="st0" d="M833.5,378.9c-2.6,14,0.3,29.1-12.8,40.9c-19.7,17.7-38.6,36.5-57.7,54.9c-3.8,3.7-6.9,3.3-10.3-0.4
					c-8.2-8.8-7.9-14.5-2.1-24.9c14-25.4,38.4-39.6,59.7-57.2c6.5-5.3,13-10.6,19.6-15.9C831.1,377.1,832.3,378,833.5,378.9z"/>
				<path class="st0" d="M1137.6,164.2c-16.2-4.6-28.6,4.1-40.9,14.7c-8.7,7.5-17.8,16.2-28.2,19.6c-11.6,3.8-25.1,3.4-37.6,2.4
					c-5.7-0.4-2.5-5.5,1-7.7c7.6-4.8,15.4-9.4,23.1-14.1c16.2-10,32.6-19.6,48.4-30.2c10.6-7.1,22.2-9.4,34.4-10.9
					c5.2-0.7,10.5-1.4,15.6-2.9c6.8-2,10.5,0.4,11.3,7c0.6,5.2,1.2,10.9-0.2,15.7c-0.8,2.7-5.4,5.5-8.7,6.1
					C1150.1,164.9,1144.4,164.2,1137.6,164.2z"/>
				<path class="st0" d="M970.7,286.2c-6.5,0.5-13,1.3-19.6,1.3c-2.6,0-5.2-2-7.9-3.1c1.5-2.2,2.5-4.9,4.5-6.4
					c18.7-14,37.6-27.6,56.3-41.6c10.2-7.7,20.8-13.7,34.3-12.1c6.4,0.8,9.4,3.7,9.5,10.2c0.1,9.2-3.7,16.5-11.1,21.5
					c-14.2,9.5-28.4,19.1-43.4,27.3c-6.4,3.5-14.7,3.4-22.1,5C971,287.6,970.9,286.9,970.7,286.2z"/>
				<path class="st0" d="M833.4,783.9c0-29.1,0.1-58.2-0.1-87.3c-0.1-8.4,2.7-14.7,10.4-18.2c6.7-3,10.2-0.5,9.9,6.9
					c-1.3,45.3-2.6,90.7-3.8,136c-0.2,7.2,0.3,14.4-0.2,21.6c-0.2,2.6-2.6,5-4,7.5c-2.6-1.4-6.3-2.3-7.4-4.4c-2-4-3.4-8.8-3.5-13.3
					c-0.4-16.3-0.2-32.5-0.2-48.8C834.3,783.9,833.8,783.9,833.4,783.9z"/>
				<path class="st0" d="M1199.6,271.2c-13-1.3-24.4-1.8-35.4-3.8c-4.3-0.8-8.6-4.5-11.8-7.9c-4.9-5.2-9.1-11.1-13.1-17.1
					c-1.2-1.8-1.7-5.2-0.7-6.8c0.8-1.3,4.5-1.5,6.6-1c15.8,3.7,31.5,7.7,47.2,11.7c9.4,2.4,16.2-3,23.1-7.8
					c13.8-9.6,24.6-9.4,37.1,1.8c1.3,1.2,1,7.2-0.2,7.9c-14,7.4-28.3,14.4-42.7,21C1206.1,271,1201.8,270.8,1199.6,271.2z"/>
				<path class="st0" d="M1097.6,218.2c-2.8,15.8-7.8,30.3-7.5,44.6c0.6,23.8-18.1,29.8-32.3,40.2c-2.1,1.5-6.1,1.1-9,0.5
					c-6.7-1.5-13.3-3.4-19.8-5.7c-2.4-0.8-4.3-3.2-6.4-4.8c1.8-1.9,3.2-4.3,5.4-5.7c10.2-6.5,20.7-12.7,31-19.1
					c8.9-5.5,14.3-12.7,12.4-24c-2.3-13.7,3.8-23.5,15.6-30.1c2.2-1.2,5.5-1.8,7.6-1C1096.3,213.8,1097,217,1097.6,218.2z"/>
				<path class="st0" d="M926.3,308.4c7.2,2,12.1,3.4,16.9,4.7c-2.9,4.6-5,10.2-9,13.6c-17,14.2-34.6,27.7-51.9,41.5
					c-5.6,4.5-10.9,9.4-16.5,13.8c-1.8,1.4-5.3,3.2-6.3,2.5c-1.8-1.3-3.2-4.4-3.3-6.8c-0.3-13.5,1.9-25.6,14.7-34.2
					c11.1-7.4,20.4-17.6,31.5-25C909.7,313.5,918.9,311.3,926.3,308.4z"/>
				<path class="st0" d="M1223.5,115.3c9.2-26.8-8.8-42-24.9-58c-0.7-0.7-1.6-1.1-2.1-1.8c-1.9-2.6-3.7-5.3-5.6-8
					c3-1.9,5.7-4.7,9-5.5c18.5-4.9,18.5-4.7,29.3,12.4c5.3,8.4,10.8,16.7,16.5,24.9c4.6,6.7,5.6,13.4,2.4,21.2
					c-3.9,9.2-6.6,18.9-10.8,27.9c-1.3,2.9-5.8,4.3-8.8,6.4c-1.9-3.1-4.6-6-5.5-9.3C1222,122.4,1223.2,118.7,1223.5,115.3z"/>
				<path class="st0" d="M816.3,461.4c8.6,0.2,15.7,5.7,17.5,14c3,13.7,5.7,27.5,8.4,41.3c1.3,6.6-9.4,21-15.7,20.3
					c-2.7-0.3-5.9-4.1-7.2-7c-3.2-7.1-5.1-14.8-8.3-21.9c-3.9-8.7-8.9-16.5-19.2-19.1c-1.8-0.5-4.3-3.9-4.2-5.7
					C788.1,477.4,810,461.3,816.3,461.4z"/>
				<path class="st0" d="M1150.1,187.6c23.9-7.1,36.7,13.3,53.7,24.3c4.7,3.1,2.9,7.7-1.9,9.1c-4,1.1-8.6,0.8-12.8,0
					c-18-3.6-36.1-7.3-53.9-11.7c-4.2-1-8.8-3.7-11.6-7c-5.7-6.7-2.9-13.5,5.9-14.6C1135.9,187,1142.5,187.6,1150.1,187.6z"/>
				<path class="st0" d="M752.9,523.7c4.9-4.9,9.4-12.8,15.3-14c5.8-1.2,15.2,2.6,19.2,7.4c6.5,8,10.3,18.4,14.5,28
					c2.8,6.3-2.8,13.5-13,18.7c-6.6,3.4-10.6,0-14-5c-5.6-8.2-11.3-16.3-16.8-24.6C756.3,531.6,755.3,528.7,752.9,523.7z"/>
				<path class="st0" d="M1266.2,388c-4.2,1-8.4,2.7-12.7,2.9c-9.4,0.4-18.8,0.6-28.1-0.3c-16.3-1.6-30,4-43.1,12.8
					c-9.1,6.1-18.1,12.7-30.2,10.5c-1.8-0.3-3.5-1-8.2-2.5c18.3-15,37.5-25.8,57-31.5c20.6-6,43.3-0.3,64.9,2.9
					C1266.1,384.5,1266.2,386.2,1266.2,388z"/>
				<path class="st0" d="M1022.7,406.9c-0.8,3.7-1.2,7.5-2.6,10.9c-7.9,19.3-7.1,23.7,7.8,37.2c1.2,1,2.7,2,3.2,3.3
					c1.3,3.2,2,6.6,3,9.9c-3.5,0-7.1,0.7-10.3-0.2c-21.7-6.3-24.6-24.1-25.4-42.9c-0.1-2.5,1.1-5.9,3-7.4c5.7-4.6,11.9-8.5,18-12.7
					C1020.5,405.6,1021.6,406.3,1022.7,406.9z"/>
				<path class="st0" d="M1232.1,158.5c10.9-1.8,19.9,2.1,27.3,9.5c1.7,1.7,1.9,4.7,2.8,7.1c-2.2,0.6-4.5,1.7-6.7,1.5
					c-7.1-0.6-14.3-2.6-21.4-2.4c-8.2,0.3-16.3,3-24.5,3.7c-3.7,0.3-7.7-1.6-11.5-2.4c2-3,3.3-7.3,6.1-8.7
					c8.6-4.3,17.8-7.5,26.8-11.1C1231.4,156.6,1231.8,157.5,1232.1,158.5z"/>
				<path class="st0" d="M1279.6,199.8c6.7-0.3,12.3,3.4,14.7,11.9c1.6,5.3,4.7,10.4,5.3,15.8c0.4,3.3-2.4,7-3.8,10.6
					c-3.4-1.5-7.8-2-9.9-4.6c-5.8-6.9-11.2-14.2-15.6-22C1266.1,203.9,1269.4,199.2,1279.6,199.8z"/>
				<path class="st0" d="M830.3,643.9c0-8.1-0.4-13.7,0.1-19.3c0.6-5.8,3.7-9.2,9.4-4.7c5.1,4,10.6,8.3,13.7,13.8
					c1.8,3.2-0.5,8.9-1.7,13.3c-0.3,1.3-2.8,2.3-4.5,3.1c-4.4,1.9-8.9,3.6-13.4,5.3C832.5,650.8,831.1,646.3,830.3,643.9z"/>
				<path class="st0" d="M854.9,466.8c1.6-2.1,3.3-6.6,5.8-7c2.7-0.4,8.1,2.3,8.7,4.6c2.9,11.4,5.1,22.9,6.4,34.6
					c0.3,2.3-4.2,5.2-6.5,7.8c-2.3-2.4-5.7-4.5-6.6-7.4C859.8,489.2,857.7,478.8,854.9,466.8z"/>
				<path class="st0" d="M900.4,540.4c-2.2,4.2-4.9,10.1-8.6,15.5c-0.6,0.9-5.6,0.2-7.4-1.3c-2.8-2.3-4.9-5.7-6.7-8.9
					c-2.3-4.1-7-10.3-5.6-12.3c3-4.5,8.7-7.9,13.9-10C891.5,521.4,901.1,531.8,900.4,540.4z"/>
				<path class="st0" d="M1211.9,431.3c-3-0.5-5.4-0.3-7.2-1.2c-2.8-1.5-5.2-3.9-7.8-5.9c2.2-2.2,4.2-4.9,6.8-6.4
					c3.2-1.8,7-3.3,10.6-3.3c3.5,0,6.9,2,10.4,3.1c-1.6,3.7-2.4,8.1-4.9,11C1218.2,430.5,1214.2,430.6,1211.9,431.3z"/>
				<path class="st0" d="M1242.2,209.4c-4.2-2.2-8.6-4.2-12.4-6.8c-1.3-0.9-2.3-4.2-1.7-5.3c0.9-1.4,4.4-3,5.3-2.3
					c4.3,3.1,8.1,6.8,12,10.4C1244.4,206.6,1243.3,208,1242.2,209.4z"/>
				<path d="M963.8,528.8c-24.1-1.2-40.9-14.4-48.2-37.6c-2-6.6-4.7-13.1-5.4-19.8c-0.6-6.3,0.2-13,2-19.1c2.1-7.1,6-13.7,9-20.5
					c4-8.9,8.2-11.1,16.9-7.5c8.3,3.4,16.6,7.2,24.4,11.7c7.1,4,9,11.1,7.5,18.7c-2.1,10.4,0.4,19,7.5,26.7
					c10.4,11.4,10.8,25,7.1,38.7C981.7,530.9,972.3,529.6,963.8,528.8z M949.4,457.5c-1.4-1.9-3.1-6.2-5.3-6.5
					c-2.8-0.4-7.4,1.7-8.9,4.1c-11.1,17.7,2.6,44.9,23.2,52c1.9,0.6,5.9-0.3,6.5-1.7c1-2.1,0.8-5.8-0.5-7.6c-3.6-5-7.9-9.6-12.3-14
					c-5.9-5.9-7.9-12.5-4.5-20.4C948.2,462,948.5,460.4,949.4,457.5z"/>
				<path class="st0" d="M949.4,457.5c-0.9,3-1.2,4.5-1.9,5.9c-3.4,7.9-1.4,14.4,4.5,20.4c4.4,4.4,8.7,9,12.3,14
					c1.3,1.8,1.5,5.5,0.5,7.6c-0.6,1.3-4.6,2.3-6.5,1.7c-20.6-7.1-34.3-34.3-23.2-52c1.5-2.4,6.1-4.5,8.9-4.1
					C946.3,451.2,948,455.5,949.4,457.5z"/>
			</g>
		</g>
	</g>
</g>
</svg>
