<?xml version="1.0" encoding="UTF-8"?>
<svg id="Layer_1" data-name="Layer 1" xmlns="http://www.w3.org/2000/svg" viewBox="0 0 1063.37 1063.15">
  <defs>
    <style>
      .cls-1, .cls-2 {
        stroke-width: 0px;
      }

      .cls-2 {
        fill: #fff;
      }
    </style>
  </defs>
  <circle class="cls-2" cx="531.51" cy="531.51" r="531.51"/>
  <path class="cls-1" d="M531.74,1061.9c-21.98,0-44.09,1.46-65.9-.42-20.39-1.76-40.65-6.3-60.63-11.02-18.96-4.48-37.78-9.97-56.14-16.48-31.14-11.04-61.42-24.2-88.92-42.86-23.77-16.13-48.43-31.23-70.7-49.25-42.02-33.99-77.63-74.24-106.11-120.28-13.57-21.93-26.15-44.64-37.2-67.93-15.98-33.67-27.81-69.1-35.81-105.47-4.91-22.35-8.14-45.37-9.14-68.22-1.49-33.83-1.66-67.85.15-101.66,1.17-21.99,5.99-43.93,10.76-65.55,4.42-20.04,9.69-40.08,16.87-59.26,8.38-22.39,19.27-43.83,29.02-65.71,12.22-27.43,28.35-52.67,47.22-75.69,19.41-23.67,41.28-45.35,62.23-67.75,28.08-30.03,61.1-53.94,96.55-74.17,29.96-17.09,61.07-32.05,94.05-43.06,35.26-11.78,71.1-20.68,107.91-25.1C483.21-.04,500.82-.12,518.26.07c31.45.35,62.88-1.4,94.28,4.09,40.47,7.09,80.2,16.4,118.18,32.12,47.25,19.56,92.4,43.43,131.29,76.8,38.34,32.9,75.31,67.77,104.84,109.12,14.62,20.47,26.55,43,38.34,65.31,10.3,19.48,19.92,39.51,27.62,60.13,8.39,22.45,15.05,45.65,20.98,68.91,9.63,37.74,9.94,76.45,9.44,115.13-.14,11.12-.47,22.25-.21,33.37.91,40.17-6.21,78.99-19.27,116.81-8.35,24.18-16.04,48.65-25.85,72.23-13.66,32.8-32.95,62.56-53.41,91.55-29.09,41.22-64.1,76.94-103.74,107.72-29.16,22.64-59.78,43.74-94.05,58.3-27.88,11.85-55.66,24.46-84.54,33.32-40.48,12.43-82.17,19.88-124.99,17.83-8.46-.4-16.95-.06-25.42-.06v-.86ZM531.85,35.5c-272.99.03-496.1,222.36-496.45,494.72-.35,275.84,221.22,498.39,496.26,498.44,274.27.05,496.81-221.84,496.91-495.45.1-274.9-222.3-497.74-496.72-497.71Z"/>
  <path class="cls-2" d="M531.85,35.5c274.42-.03,496.82,222.81,496.72,497.71-.1,273.61-222.64,495.5-496.91,495.45-275.04-.05-496.62-222.59-496.26-498.44.35-272.36,223.46-494.69,496.45-494.72ZM528.79,988.08c250.04,1.57,456.63-199.09,458.8-452.04,2.13-248.01-194.57-451.99-441.73-459.22-258.22-7.55-463.08,197.45-469.44,443.34-6.52,251.99,194.03,465.38,452.37,467.92Z"/>
  <path class="cls-1" d="M528.79,988.08c-258.34-2.54-458.88-215.93-452.37-467.92,6.36-245.89,211.22-450.89,469.44-443.34,247.16,7.23,443.86,211.21,441.73,459.22-2.18,252.95-208.76,453.61-458.8,452.04ZM456.78,477.36c-.18,1.05-.37,2.1-.55,3.15-5.2,1.57-10.71,2.49-15.53,4.83-17.22,8.37-32.94,4.64-47.93-5.28-14.83-9.8-36.22-.99-39.96,16.38-2,9.29-4.83,18.4-7.18,27.61-.58,2.27-1.2,4.69-.96,6.96,4.15,40.48,11.89,80.39,27.74,117.84,18.69,44.19,52.15,76.51,91.22,103.27,9.48,6.49,19.92,8.06,31.09,5.25,25.14-6.32,50.32-6.36,75.47-.08,11.75,2.93,22.85,1.44,32.42-5.94,13.37-10.32,27.11-20.4,39.14-32.17,21.81-21.33,43.11-43.81,52.3-73.76,9.05-29.52,15.67-59.79,23.3-89.74,4.09-16.03,4.02-31.82-2.61-47.34-1.42-3.33-1.61-7.21-2.21-10.87-3.63-22.13-3.1-44.25-.5-66.49,1.1-9.44.79-20.75-7.49-26.06-20.19-12.97-32.95-30.87-41.53-52.6-.97-2.46-3-5.35-5.27-6.32-14.6-6.21-25.12-17.24-35.73-28.45-10.17-10.75-20.51-21.46-31.78-31.01-9.77-8.28-21.11-11.34-34.96-11.48-15.82-.15-31.62-1.37-47.39.7-7.65,1.01-16.6.58-22.51,4.5-12.21,8.09-23.22,18.2-33.92,28.33-13.37,12.67-23.92,28.36-41.58,36.28-3.56,1.6-6.96,5.63-8.47,9.34-8.42,20.64-20.39,38.13-39.94,49.86-2.61,1.56-4.81,4.89-5.81,7.86-4.9,14.52-1.02,29.22-.21,43.85.01.26.82.48,1.27.7.42-.29.99-.48,1.24-.87.98-1.57,2.05-3.13,2.74-4.83,6.52-16.02,18.93-25.69,34.4-32.11,29.85-12.39,60.96-12.04,92.26-8.85,14.07,1.43,17.46,4.51,17.89,18.4,1.02,32.54,1.18,65.12,1.55,97.68.02,1.58-1.18,4.5-1.88,4.52-1.84.06-4.38-.6-5.48-1.93-9.59-11.56-19.71-22.81-28.1-35.22-6.42-9.5-4.35-17.56,3.41-25.4,7-7.07,6.66-11.6-1.79-17.01-3.05-1.95-6.62-3.62-10.15-4.18-18.98-3.05-35.6,2.38-49.9,15.04-1.21,1.07-2.52,3.3-2.17,4.51.36,1.23,2.65,2.44,4.24,2.67,6.8,1,13.75,1.18,20.46,2.53,7.22,1.45,14.24,3.87,21.35,5.87ZM377.46,179.14c-5.03-7.56-10.05-14.32-14.03-21.64-1.04-1.9.41-7.4,2.05-8.09,4.63-1.95,9.11-9.86,14.95-2.9,9.54,11.37,21.14,12.79,34.4,8.76,2.51-.76,5.14-1.2,7.75-1.52,16.75-2.03,31.14,4.44,44.85,12.88,13.05,8.03,25.54,17.03,38.94,24.41,10.33,5.68,11.01,5.5,9.58,17.07-.66,5.33-3.37,6.92-8.13,5.53-5.06-1.48-10.29-2.75-15-5.03-12.12-5.88-23.82-12.65-36.01-18.36-19.49-9.14-37.78-8.62-55.64,5.59-12.31,9.8-25.65,19.36-40.09,25.14-14.68,5.88-28.16,12.44-39.84,23.01-3.32,3.01-7.49,5.09-12.74,8.57,17.16,5.54,32.65,7.49,48.63,6.54,17.94-1.06,32.42-8.62,44.16-22.05,3.65-4.17,7.53-8.28,11.89-11.66,13.36-10.37,28.08-15.01,44.4-7.63,15.64,7.07,31.1,14.57,46.45,22.26,18.21,9.13,36.37,9.9,54.75.81,10.66-5.27,21.17-10.85,31.96-15.83,11.19-5.16,21.92-11.96,35.21-10.53,13.69,1.47,23.89,8.68,33.5,17.98,8.07,7.81,16.51,16.09,26.35,21.02,19.14,9.58,39.73,6.43,59.91,2.3,3.14-.64,6.17-1.85,10.55-3.2-7.85-5.59-14.76-9.56-20.47-14.83-6.95-6.41-14.38-10.77-23.6-13.44-19.67-5.69-35.77-17.99-51.48-30.63-8.44-6.79-17.87-9.84-28.66-9.59-14.37.33-26.17,7.54-38.54,13.5-11.62,5.59-23.41,10.85-35.4,15.59-2.04.81-7.12-1.07-7.89-2.92-3.95-9.48-1.26-14.81,8.23-18.78,1.21-.51,2.38-1.15,3.49-1.86,11.12-7.13,22.21-14.31,33.34-21.42,18.7-11.94,38.03-19.1,60.78-11.52,8.76,2.91,18.92,1.02,24.85-6.54,6.26-7.98,11.17-5.37,17.81-1.68,4.57,2.54,5.73,5.12,3,9.36-4.52,7.03-9.16,13.98-14.01,21.35,11.99,10.78,26.53,16.64,42.18,20.08,1.85.41,4.74-.04,5.95-1.27,5.61-5.72,12.3-11.1,15.8-18.02,6.11-12.1,3.83-16.17-7.94-22.8-27.76-15.64-57.33-26.86-87.22-37.74-23.79-8.66-43.39-4.41-61.31,12.23-9.31,8.64-18.31,17.63-27.94,25.91-3.76,3.23-8.83,4.93-13.31,7.33-1.22-4.38-2.47-8.75-3.64-13.15-.34-1.27-.87-2.75-.53-3.89.96-3.24,1.52-7.11,3.67-9.39,9.59-10.19,19.71-19.88,29.54-29.85.74-.75.72-2.24,1.25-4.06-35.05-3.46-69.29-4.02-105.92.52,11.96,12.08,22.43,22.4,32.52,33.08,2.25,2.38,4.65,6.19,4.36,9.09-.6,6.03-2.95,11.89-4.58,17.82-5.43-3.43-11.3-6.31-16.19-10.39-11.77-9.81-22.65-20.73-34.69-30.18-13.04-10.22-27.63-13.56-43.97-7.09-12.52,4.96-25.9,7.8-38.24,13.11-20.37,8.77-40.19,18.81-60.26,28.26-5.7,2.68-7.68,7.15-6.04,12.98,1.41,5.04,2.2,11.06,5.49,14.56,4.97,5.3,12.17,12.74,17.9,12.32,16.12-1.2,30.61-8.74,42.83-19.46ZM335.83,738.01c-3.93,5.97-8.53,11.96-3.56,17.48,14.71,16.36,27.39,35.14,49.22,43.72,16.24,6.39,26.05,20.34,36.87,32.99q12.14,14.19,29.3,8.35c1.75-.59,3.6-.9,5.34-1.54,13.25-4.88,24.97-2.41,36.76,5.39,12.31,8.15,25.64,14.77,38.68,21.78,2.61,1.4,6.3,2.77,8.84,2,11.85-3.58,23.87-7.06,35.1-12.17,21.39-9.73,42.1-20.94,63.5-30.66,5.41-2.46,8.67-5.01,10.22-10.58,6.84-24.47,13.89-48.88,20.8-73.33.5-1.77.48-3.69.88-7.06-2.71,1.8-4.07,2.49-5.17,3.47-8.07,7.24-15.76,14.95-24.18,21.75-19.97,16.13-40.81,30.21-68.3,29.61-25.14-.55-50.33.52-75.44-.41-10.87-.4-22.18-2.6-32.32-6.49-19.53-7.5-35.12-21.44-50.4-35.34-20.22-18.39-38.8-38.29-53.78-61.34-.78-1.19-5.02-1.88-5.74-1.08-4.45,4.97-4.29,14.81.32,20.2,11.52,13.47,22.58,27.44,35.08,39.95,26.17,26.18,54.49,49.48,91.1,60.11,1.69.49,2.61,3.64,3.89,5.55-2.28,1-5.01,3.34-6.77,2.76-9.25-3.05-18.65-6.09-27.29-10.51-35.98-18.39-64.55-45.78-90.57-76.13-4.38-5.11-8.65-10.33-14.21-16.98-2.08,8.52-7.67,13.95-1.16,21.92,18,22.01,36.81,43.31,59.72,60.15,13.91,10.23,29.93,17.58,44.82,26.52,2.21,1.33,3.43,4.31,5.11,6.52-2.88.73-5.94,2.47-8.58,1.97-4.06-.77-7.92-2.9-11.71-4.75-29.56-14.39-53.22-36.24-75.35-59.96-6.97-7.46-13.51-15.32-21.01-23.87ZM846.92,825.39c-.35-.54-.7-1.08-1.05-1.63-3.55,1.26-7.06,2.64-10.65,3.76-38.55,12.04-78.04,16.81-118.36,15.22-10.3-.41-20.66-1.27-30.91-.68-19.59,1.14-37.67,8.24-55.21,16.46-19.29,9.04-38.31,18.67-58.69,28.64,2.85,1.99,4.33,3.47,6.1,4.2,32.53,13.3,65.05,26.62,97.69,39.64,5.8,2.31,11.65,3.42,18.34.62,56.44-23.62,105.97-57.26,148.63-101.06,1.52-1.56,2.73-3.44,4.08-5.18ZM313.49,296.69c6.11,5.34,11.47,10.87,17.63,15.27,25,17.9,77.56,14.22,100.18-22.53,8.43-13.69,19.47-25.07,34.87-31.34,1.03-.42,1.75-1.6,3.13-2.92-3.65-2.71-6.72-5.17-9.96-7.36-12.28-8.33-17.13-8.04-27.8,2.17-6.31,6.03-12.11,12.6-18.36,18.7-15.17,14.79-32.85,23.7-54.62,23.34-27.35-.45-52.41-9.45-76.92-20.38-10.44-4.66-12.61-4.41-15.8,6.64-3.14,10.88-7.67,20.19-18.32,25.5-1.81.9-3.94,2.58-4.43,4.32-.66,2.31-.87,6.29.48,7.39,17.49,14.28,35.78,27.74,58.24,32.67,9.17,2.01,9.02,8.35,9.59,13.96.69,6.78-6.02,5.44-10,5.77-24.27,1.96-45.94-5.63-65.72-19.1-4.62-3.15-8-2.79-8.52,2.61-1.54,15.83-8.46,27.93-20.66,38.35-7.4,6.32-5.13,14.72,2.89,20.42,7.43-5.91,14.33-12.58,22.31-17.51,23.27-14.38,49.07-16.67,75.15-11.57,27.28,5.33,47.21-6.17,65.1-24.38,1.07-1.09,1.28-3.04,2.12-5.21-2.62-.4-4.38-.71-6.14-.92-24.72-2.93-44.61-14.23-58.95-34.66-7.46-10.63-6.96-12,4.52-19.23ZM691.79,353.9c-.07-.68-.21-.02.06.33,13.35,17.01,37.34,31.68,58.89,27.83,37.89-6.77,73.47-4.14,102,26.19.94,1,5.52.39,6.74-.96,5.73-6.38,4.83-14.35-3.99-21.24-10.16-7.94-15.74-17.3-16.17-30.2-.11-3.31-2.47-6.54-4.08-10.51-4.25,2.73-7.27,4.78-10.4,6.65-19.8,11.83-40.88,18.67-64.23,15.42-2.5-.35-6.86-3.92-6.58-4.8,1.47-4.61-1.35-11.87,5.88-13.34,21.98-4.44,39.64-17.01,57.19-29.8,9.39-6.84,9.32-10.3-.96-16.59-8.21-5.02-13.49-11.58-15.39-21.02-.51-2.56-1.84-4.95-2.75-7.43-2.17-5.92-5.54-7.23-11.68-4.64-14.1,5.94-28.25,12.02-42.88,16.39-19.65,5.87-39.73,8.92-60.14,2.43-16.02-5.09-27.81-15.87-39.16-27.5-5.53-5.67-11.06-11.45-17.33-16.21-2.74-2.08-8.02-3.4-10.93-2.17-7.04,2.98-13.37,7.65-19.99,11.64l-.12,2.63c19.74,6.32,30.99,21.77,41.96,37.33,8.12,11.51,18.71,19.26,32.07,23.32,29.23,8.88,55.94,6.72,77.87-17.49,1.38-1.52,5.76-1.95,7.74-.93,3.48,1.79,7.63,4.12,4.62,9.86-6.57,12.54-15.44,23.26-28.05,29.4-12.61,6.14-26.24,10.18-40.21,15.43ZM537.22,961.04c-1.27-1.08-1.77-1.73-2.43-2.04-28.26-13.6-54.17-30.88-78.67-50.33-26.22-20.82-49.7-44.42-70.8-70.38-9.83-12.1-22.55-16.87-37.79-16.25-5.98.25-9.37,2.23-9.08,9.03.15,3.58-.92,7.36-2.14,10.81-1.67,4.73-.97,8.36,2.24,12.38,12.58,15.74,27.84,28.22,45.23,38.14,10.57,6.03,11.18,7.04,4.22,16.97-1.16,1.66-5.47,3.05-7.02,2.2-17.12-9.37-34.8-18.08-50.63-29.35-9.68-6.89-16.78-10.75-27.21-2.54-3.98,3.13-9.9,3.8-15.34,5.73,34.6,39.55,208.17,92.07,249.41,75.63ZM207.92,614.45c-10.96,7.55-20.27,13.92-29.52,20.36-12.34,8.6-25.32,16.45-36.76,26.11-12.37,10.44-13.76,20.55-7.74,35.62,14.62,36.61,35.04,69.87,58.71,101.23.84,1.12,2.96,2.67,3.5,2.35,1.35-.8,2.46-2.42,3.07-3.95,1.96-4.89,2.76-10.49,5.66-14.68,3.72-5.35,2.03-8.07-2.04-11.8-16.9-15.48-26.99-35.04-32.78-56.94-.67-2.55-.95-6.37.45-8.07,3.82-4.64,17.55-1.71,19.83,4.09,6.64,16.94,18.21,30.08,30.92,42.68,6.47,6.42,11.91,6.27,19.3.51-24.76-41.83-29.35-88.81-32.59-137.52ZM101.27,543.23c1.55,35.21,5.43,68.38,14.83,100.08,13.88-10.02,26.73-19.53,39.84-28.69,9.3-6.5,19.21-12.14,28.36-18.83,10.25-7.49,16.92-17.24,16.66-30.75-.19-9.92-3.66-14.27-13.71-14.25-8.16.02-16.33,1.79-24.48,1.67-14.7-.22-29.45-.75-44.06-2.24-5.43-.55-10.56-4.13-17.44-7ZM833.27,795.06c14.69-1.08,16.38-2.41,19.39-13.74,2.79-10.49,5.64-20.95,8.45-31.43,12.16-45.23,24.35-90.45,36.48-135.69,13.72-51.12,27.31-102.27,41.2-153.34,1.46-5.37,1.13-8.51-4.74-10.18-5.57-1.59-8.64-.89-10.31,5.58-6.81,26.39-14.23,52.61-21.29,78.93-20.56,76.69-41.05,153.4-61.54,230.11-2.57,9.6-4.95,19.26-7.65,29.77ZM651.3,946.29c-.04-.6-.07-1.2-.11-1.8-1.59-.73-3.12-1.6-4.76-2.15-15.54-5.24-31.3-9.89-46.61-15.74-41.76-15.96-82.75-33.68-121.95-55.35-6.91-3.82-14.28-4.62-21.73-.34.57,1.3.7,2.2,1.21,2.67,33.74,31.17,69.62,59.39,110.52,80.82,8.04,4.21,15.89,6.44,25.04,4.33,9.53-2.2,19.33-3.19,28.9-5.22,9.89-2.09,19.65-4.78,29.47-7.21ZM769.83,794.69c10.65-4.31,19.24-8.02,28.01-11.26,5.26-1.94,7.8-5.39,9.21-10.73,9.63-36.52,19.52-72.97,29.29-109.45.78-2.9,1.21-5.89,2.14-10.53-6.98,1.26-12.55,3-18.15,3.13-12.99.29-16.53,8.18-19.31,19.31-8.95,35.86-18.98,71.44-28.55,107.15-.91,3.38-1.47,6.85-2.64,12.38ZM287.51,407.54c-34.29-.3-58.6,9.57-77.65,32.52-7.57,9.12-8,29.2-.36,38.57,4.6,5.64,6.5,5.66,10.14-.75,9.55-16.79,22.06-30.85,40.46-37.52,12.32-4.47,25.52-6.59,38.44-9.22,8.11-1.65,15.34-4.2,19.62-11.83,1.92-3.43,2.61-6.7-2.79-7.53-10.95-1.68-21.91-3.33-27.87-4.24ZM849.06,483.22c13.04-7.37,17.27-28.02,7.73-40.44-5.71-7.43-12.54-14.48-20.17-19.86-26.77-18.88-56.51-17.72-86.77-11.09-4.53.99-4.5,3.93-2.85,7.19,3.67,7.25,10.23,10.34,17.79,11.73,8.05,1.48,16.18,2.56,24.16,4.33,21.22,4.71,38.53,15.47,50.75,33.79,3.18,4.77,6.27,9.59,9.37,14.34ZM914.77,611.75l2.02,2.16c10.29-4.46,20.61-8.86,30.84-13.47,1.27-.57,2.57-2.16,2.93-3.53,4.04-15.05,10.32-29.99,11.24-45.26,1.35-22.56-1.05-45.35-2.16-68.03-.1-2.04-2.45-3.97-3.76-5.95-2.06,1.42-4.52,2.51-6.05,4.36-1.24,1.5-1.45,3.9-1.99,5.93-7.29,27.04-14.58,54.08-21.82,81.14-3.8,14.2-7.5,28.43-11.25,42.65ZM881.32,446.15c-.7.39-1.41.78-2.11,1.17,6.62,18.26-.47,33.69-8.71,49.06-1.46,2.73-.63,6.63-1.15,9.94-1.48,9.52-.73,20.41-5.27,28.19-6.33,10.84-10.11,21.21-8.96,33.54.15,1.55.34,3.55-.45,4.67-5.26,7.5-.86,12.67,3.94,17.82,2.78,2.98,5.6,5.92,8.4,8.88,1.61-3.9,3.24-7.79,4.83-11.7.4-.98.72-1.99.99-3.01,10.12-37.77,20.25-75.54,30.28-113.33.43-1.63.65-4.27-.27-5.17-7-6.86-14.32-13.41-21.53-20.05ZM275.73,791.61c-18.42-.33-27.81,11.86-22.91,29.76,4.81,17.56,23.4,32.38,41.73,32.36,4.01,0,8.88-2.07,11.88-4.8,10.91-9.94,10.63-37.06-.61-46.61-8.47-7.2-18.89-10.43-30.1-10.72ZM254.63,579.59c.88.21,1.76.41,2.65.62,1.23-1.83,2.39-3.72,3.71-5.47,5.38-7.1,10.09-14.9,16.42-21.03,7.16-6.93,16.36-11.75,23.62-18.61,6-5.67,11.69-12.35,15.36-19.67,8.72-17.4,7.71-36.44,6.49-55.24-.1-1.52-2.7-4.16-4.07-4.11-21.22.73-25.86,5.2-24.9,26.58.8,17.88-4.45,32.47-15.81,46.6-9.41,11.7-15.43,26.19-22.42,39.72-1.51,2.93-.75,7.04-1.03,10.61ZM744.32,455.73c-.7,1.71-1.8,3.29-1.96,4.96-1.59,16.69-1.92,33.53,4.31,49.28,3.29,8.32,8.12,17.12,14.74,22.82,16.79,14.44,37.44,24.81,45.9,48.79,5.67-7.28,3.04-13.51.41-18.24-7.39-13.32-14.99-26.7-24.18-38.79-7.94-10.44-12.36-21.3-12.36-34.19,0-5.55.1-11.1.05-16.65-.11-11.81-.59-12.27-11.92-14.45-4.87-.94-9.66-2.26-14.99-3.53ZM735.9,809.92c10.13,1.02,13.75-2.41,15.66-9.99,6.81-27.15,14.35-54.11,21.57-81.15,6.95-26.02,13.89-52.05,20.77-78.1.92-3.5,2.64-7.46-2.6-9.25-5.19-1.78-6.39,2.13-7.65,5.66-6.38,17.83-13.66,35.4-18.87,53.57-10.85,37.82-20.64,75.94-30.62,114-.49,1.86,1.41,4.35,1.74,5.27ZM721.68,780.74l2.32-.54c8.24-30.79,16.49-61.57,24.86-92.85-11.86,3.83-22.1,6.94-32.14,10.59-1.75.63-3.26,3.4-3.85,5.47-3.99,13.99-7.77,28.03-11.43,42.11-.64,2.46-1.49,5.94-.32,7.62,6.53,9.43,13.65,18.45,20.57,27.61ZM798.77,470.2c-1.24,14.84-.58,26.96,8.91,37.9,7.33,8.46,12.94,18.45,18.95,27.99,1.65,2.62,2.02,6.04,2.97,9.1.7.03,1.4.05,2.1.08,1.32-3.27,2.39-6.68,4.04-9.78,1.79-3.37,3.46-7.38,6.37-9.47,5.74-4.13,6.02-8.6,3.47-14.4-8.98-20.44-26.04-31.59-46.8-41.42ZM266.36,472.16l-2.64-1.92c-8.65,5.83-17.59,11.27-25.87,17.58-8.94,6.82-16.39,15.25-18.8,26.6-.66,3.12,1.32,7.16,2.95,10.33,2.44,4.74,5.78,9,8.48,13.62,1.19,2.03,1.72,4.45,2.55,6.69.78.24,1.56.49,2.34.73.41-1,.96-1.96,1.19-2.99,3.43-15.35,13.39-26.62,23.31-38.03,8.39-9.65,7.27-21.24,6.49-32.61ZM103.98,475.39c1.11.73,2.21,1.46,3.32,2.18,12.62-11.35,25.45-22.47,37.63-34.26,1.96-1.89,2.58-7.81,1.1-10.16-6.58-10.43-14.12-20.26-21.44-30.22-.41-.56-1.91-.32-4.51-.67-5.4,24.54-10.75,48.83-16.09,73.13ZM282.61,781.91c-13.62-9.79-36.88-4.82-48.87,8.69-11.06,12.46-9.64,34.98,3.24,51.3,9.68,12.26,26.42,19.8,35.13,15.34-1.19-.89-2.09-1.82-3.19-2.33-13.14-6.13-20.8-16.82-24.89-30.29-7.14-23.49,5.98-41.71,30.33-42.36,2.75-.07,5.5-.24,8.25-.36ZM318,557.98c-10.95,10.29-20.42,18.92-29.39,28.02-1.01,1.03-.12,5.7,1.37,7.15,9.32,9.06,21.69,11.41,33.8,13.98.99.21,3.98-2.9,3.77-4.02-2.73-14.15-5.89-28.23-9.54-45.13ZM736.79,607.37c15.49-1.47,28.83-5.25,39.62-15.36,1.12-1.05.61-5.83-.79-7.25-7.62-7.67-15.72-14.86-23.73-22.14-3.01-2.73-5.56-1.92-6.38,1.91-2.96,13.83-5.67,27.71-8.72,42.83ZM153,479.83c-.84-.57-1.68-1.14-2.52-1.71-9.79,9.04-20.21,17.51-29.15,27.33-6.21,6.81-2.56,15.57,6.61,17.34,6.41,1.24,13.15,1.21,19.71.95,1.84-.07,5.06-2.94,5.11-4.61.43-13.09.24-26.2.24-39.3ZM715.38,672.46c16.62-4.03,35.02-22.72,37.49-37.79-8.18,1.84-15.98,3.5-23.71,5.42-1.06.26-2.22,1.62-2.65,2.74-3.65,9.44-7.14,18.93-11.13,29.63ZM327.49,665.47c2.66-8.54,5.1-16.34,7.53-24.15-5.36-1.75-10.7-3.53-16.07-5.24-1.75-.56-3.56-.97-5.35-1.41-3.88-.96-5.8.62-4.91,4.49,2.43,10.57,7.31,19.56,18.79,26.31ZM326.02,766.01c-6.3,10.75-5.3,16.61,4.19,25.71,3.2,3.07,15.39,2.58,21.38-1.09-8.45-8.14-16.83-16.2-25.57-24.62ZM406.74,449.68c16.51-6.2,31.54-11.85,46.07-17.32-13.42-5.11-38.05,3.16-46.07,17.32Z"/>
  <path class="cls-2" d="M456.78,477.36c-7.11-2-14.13-4.42-21.35-5.87-6.72-1.35-13.66-1.53-20.46-2.53-1.59-.23-3.88-1.44-4.24-2.67-.36-1.21.96-3.44,2.17-4.51,14.3-12.66,30.92-18.09,49.9-15.04,3.53.57,7.11,2.23,10.15,4.18,8.45,5.41,8.78,9.94,1.79,17.01-7.76,7.84-9.83,15.9-3.41,25.4,8.39,12.41,18.5,23.65,28.1,35.22,1.1,1.33,3.64,1.99,5.48,1.93.7-.02,1.9-2.93,1.88-4.52-.37-32.56-.53-65.13-1.55-97.68-.43-13.89-3.82-16.97-17.89-18.4-31.3-3.19-62.41-3.54-92.26,8.85-15.47,6.42-27.88,16.09-34.4,32.11-.69,1.7-1.76,3.26-2.74,4.83-.25.39-.82.59-1.25.88-.44-.23-1.24-.45-1.26-.71-.81-14.63-4.69-29.34.21-43.85,1-2.98,3.21-6.3,5.81-7.86,19.55-11.72,31.52-29.22,39.94-49.86,1.51-3.71,4.91-7.75,8.47-9.34,17.66-7.92,28.22-23.62,41.58-36.28,10.69-10.13,21.7-20.24,33.92-28.33,5.91-3.92,14.87-3.49,22.51-4.5,15.78-2.08,31.57-.86,47.39-.7,13.85.13,25.18,3.19,34.96,11.48,11.27,9.55,21.61,20.26,31.78,31.01,10.61,11.21,21.12,22.24,35.73,28.45,2.27.97,4.3,3.85,5.27,6.32,8.58,21.73,21.34,39.63,41.53,52.6,8.27,5.31,8.59,16.62,7.49,26.06-2.6,22.23-3.13,44.35.5,66.49.6,3.65.78,7.54,2.21,10.87,6.63,15.52,6.7,31.3,2.61,47.34-7.63,29.95-14.25,60.22-23.3,89.74-9.19,29.95-30.49,52.43-52.3,73.76-12.03,11.77-25.77,21.85-39.14,32.17-9.57,7.38-20.67,8.88-32.42,5.94-25.15-6.28-50.33-6.24-75.47.08-11.17,2.81-21.61,1.24-31.09-5.25-39.07-26.77-72.53-59.09-91.22-103.27-15.84-37.45-23.59-77.36-27.74-117.84-.23-2.27.39-4.7.96-6.96,2.34-9.22,5.18-18.32,7.18-27.61,3.73-17.37,25.13-26.18,39.96-16.38,15,9.92,30.71,13.65,47.93,5.28,4.82-2.34,10.34-3.26,15.53-4.83.18-1.05.37-2.1.55-3.15ZM594.96,472.81c-12.08-14.12-10.84-19.96,4.17-25.35,15.1-5.42,44.44,2.62,54.36,14.93,3.05,3.79,1.43,5.92-2.76,6.42-7.35.88-14.77,1.23-22.1,2.26-2.39.34-4.59,2.1-6.87,3.21,2.21.83,4.39,2.23,6.64,2.36,5.71.34,11.46.11,17.2.11-.04,1.43-.09,2.86-.13,4.29-10-.51-20.01-1.01-30.87-1.56,6.12,5.92,20.54,10.5,29.11,10.42,19.57-.19,33.24-13.31,48.95-21.97.25-.14.11-.98.08-.66-12.98-11.59-25.59-22.86-38.21-34.12.49-.73.97-1.45,1.46-2.18,18.37-.11,32.9,9.91,47.79,19.48-5.77-15.62-17.49-24.94-31.83-31.16-29.65-12.85-60.81-12.74-92.15-9.57-15.81,1.6-19.22,4.95-20.11,20.86-.95,17.17-.82,34.41-1.05,51.62-.02,1.39.88,2.8,1.59,4.94,11.81-4.87,23.07-9.52,34.73-14.33ZM483.67,551.83c-6.1,7.63-6.53,13.48.35,18.68,4.72,3.56,11.15,6.16,16.98,6.53,4.85.31,8.3,1.07,11.86,4.28,13.21,11.9,26.42,11.97,39.42.3,3.69-3.31,6.98-5.12,12.56-4.32,11.9,1.7,23.59-9.88,20.94-19.72-.94-3.49-2.38-7.06-7.05-4.76-6.75,3.32-12.53,1.42-18.73-1.81-2.23-1.16-6.61-.63-8.77.9-12.52,8.87-24.63,8.85-37.19-.28-1.9-1.38-5.85-2.33-7.45-1.29-7.58,4.91-15.11,5.66-22.92,1.5ZM508.91,629.62c5.13,1.01,8.46,1.1,11.28,2.33,8.26,3.63,16.01,2.6,24.6.35,6.42-1.69,14.01-.62,20.69.92,6.04,1.39,11.42,5.39,17.32,7.65,4.74,1.81,12.72-2.66,12.86-7.46.06-2.24-3.2-6.61-4.69-6.5-7.18.52-10.88-4.58-15.69-8.03-5.78-4.16-11.35-8.8-17.64-11.99-3.82-1.94-8.84-2.03-13.32-2.04-6.01,0-12.72,2.84-17.87.97-11.53-4.18-19.96.15-28.41,6.58-4.2,3.2-8.17,6.73-12.58,9.6-2.9,1.89-6.5,2.68-9.6,4.31-2.37,1.25-5.82,2.73-6.28,4.69-.5,2.14,1.34,5.5,3.16,7.37,5.54,5.71,11.17,1.72,16.69-.59,6.97-2.93,13.94-5.84,19.5-8.17ZM372.65,556.85c-1.22.06-2.43.12-3.65.18-.75,2.64-2.55,5.48-2.07,7.87,3.35,16.86,6.17,33.92,11.04,50.35,14.99,50.58,43.19,92.18,86.83,122.57,2.13,1.49,5.85.7,8.83.98-1.07-2.76-1.97-5.61-3.3-8.24-.54-1.06-2.02-1.65-3.1-2.42-38.53-27.76-64.27-64.85-78.37-109.82-5.52-17.59-8.42-36-12.7-54-.62-2.62-2.31-4.99-3.51-7.48ZM480.18,654.96c2.31,3.19,3.47,5.49,5.26,7.07,2.14,1.89,5.32,2.71,7.18,4.77,7.29,8.09,16.8,10.51,27.02,11.61,22.59,2.45,43.86.17,60.97-16.9,1.27-1.27,1.56-3.52,2.3-5.31-1.83-.35-3.67-1.04-5.48-.97-3.62.13-7.22,1.05-10.82.99-18.49-.31-36.98-.89-55.47-1.23-9.36-.17-18.73-.03-30.97-.03ZM479.45,710.18c-1.8-1.9-3.29-3.66-4.97-5.2-6.23-5.71-12.83-11.05-18.74-17.08-24.42-24.91-39.67-55.12-50.55-87.89-.82-2.47-4.07-4.14-6.18-6.18-.82,2.85-2.96,6.11-2.24,8.5,9.86,33.11,25.28,63.3,49.1,88.65,7.58,8.06,16.14,15.23,24.45,22.57,1.3,1.14,3.9,1.73,5.54,1.27,1.35-.37,2.16-2.67,3.6-4.64ZM532.43,729.1c-12.34,2.23-24.57,4.13-36.62,6.89-2.37.54-6,4.92-5.55,6.59,1.23,4.57,4.82,3.45,8.92,2.12,22.02-7.17,44.25-7.08,66.34-.15,3.66,1.15,7.64,3.71,8.8-1.67.42-1.95-3.34-6.49-5.84-7.07-11.77-2.74-23.77-4.52-36.04-6.71ZM532.89,711.51c-5.5.31-11.34.24-17.02,1.18-2.09.35-3.79,3.1-5.66,4.75,2.06,1.52,4.08,4.27,6.2,4.35,10.73.42,21.51.37,32.24-.1,2.05-.09,3.99-2.83,5.97-4.35-1.63-1.61-3.07-4.31-4.92-4.62-5.42-.91-10.99-.87-16.81-1.22ZM373.09,526.17c-.12,0-.25,0-.37,0,0-4.2.56-8.51-.23-12.56-.4-2.07-3.22-3.68-4.94-5.5-1.45,1.81-4.09,3.58-4.16,5.45-.31,8.12-.16,16.29.49,24.39.14,1.8,2.98,3.39,4.57,5.07,1.54-1.94,3.97-3.7,4.43-5.87.75-3.52.2-7.31.2-10.99ZM531.98,702.33c1.84,0,3.96.59,5.45-.13,2.39-1.16,4.35-3.19,6.49-4.85-2.06-1.46-3.95-3.72-6.21-4.18-3.53-.72-7.42-.76-10.94-.05-2.22.45-4.05,2.81-6.06,4.31,1.92,1.64,3.64,3.67,5.83,4.77,1.47.74,3.6.14,5.44.14Z"/>
  <path class="cls-2" d="M377.46,179.14c-12.22,10.73-26.71,18.26-42.83,19.46-5.73.43-12.93-7.01-17.9-12.32-3.29-3.5-4.07-9.53-5.49-14.56-1.64-5.83.34-10.3,6.04-12.98,20.08-9.45,39.9-19.48,60.26-28.26,12.34-5.31,25.72-8.16,38.24-13.11,16.34-6.47,30.94-3.13,43.97,7.09,12.04,9.44,22.92,20.36,34.69,30.18,4.89,4.07,10.76,6.96,16.19,10.39,1.63-5.93,3.98-11.79,4.58-17.82.29-2.89-2.11-6.7-4.36-9.09-10.09-10.68-20.56-20.99-32.52-33.08,36.63-4.54,70.87-3.98,105.92-.52-.53,1.83-.52,3.32-1.25,4.06-9.83,9.97-19.94,19.66-29.54,29.85-2.15,2.28-2.71,6.15-3.67,9.39-.34,1.15.2,2.62.53,3.89,1.17,4.4,2.42,8.77,3.64,13.15,4.48-2.4,9.55-4.1,13.31-7.33,9.62-8.27,18.63-17.27,27.94-25.91,17.92-16.63,37.52-20.89,61.31-12.23,29.89,10.88,59.46,22.1,87.22,37.74,11.76,6.63,14.05,10.7,7.94,22.8-3.5,6.92-10.19,12.3-15.8,18.02-1.2,1.23-4.1,1.67-5.95,1.27-15.65-3.44-30.19-9.3-42.18-20.08,4.85-7.38,9.49-14.33,14.01-21.35,2.73-4.24,1.58-6.82-3-9.36-6.64-3.69-11.55-6.3-17.81,1.68-5.93,7.56-16.1,9.45-24.85,6.54-22.75-7.57-42.08-.42-60.78,11.52-11.13,7.11-22.22,14.29-33.34,21.42-1.11.71-2.28,1.36-3.49,1.86-9.5,3.97-12.18,9.3-8.23,18.78.77,1.85,5.85,3.73,7.89,2.92,11.98-4.73,23.78-10,35.4-15.59,12.37-5.95,24.16-13.17,38.54-13.5,10.79-.25,20.22,2.8,28.66,9.59,15.7,12.64,31.81,24.94,51.48,30.63,9.22,2.67,16.65,7.02,23.6,13.44,5.71,5.27,12.62,9.24,20.47,14.83-4.39,1.35-7.41,2.56-10.55,3.2-20.17,4.14-40.77,7.29-59.91-2.3-9.85-4.93-18.28-13.22-26.35-21.02-9.61-9.3-19.81-16.51-33.5-17.98-13.29-1.43-24.02,5.37-35.21,10.53-10.79,4.98-21.31,10.56-31.96,15.83-18.38,9.1-36.53,8.33-54.75-.81-15.35-7.69-30.81-15.19-46.45-22.26-16.32-7.38-31.04-2.74-44.4,7.63-4.36,3.38-8.25,7.49-11.89,11.66-11.74,13.43-26.23,20.99-44.16,22.05-15.98.95-31.48-1-48.63-6.54,5.25-3.48,9.42-5.56,12.74-8.57,11.68-10.56,25.16-17.13,39.84-23.01,14.44-5.78,27.78-15.34,40.09-25.14,17.86-14.21,36.14-14.73,55.64-5.59,12.19,5.72,23.89,12.49,36.01,18.36,4.71,2.28,9.94,3.54,15,5.03,4.76,1.39,7.47-.2,8.13-5.53,1.43-11.58.75-11.39-9.58-17.07-13.4-7.38-25.89-16.38-38.94-24.41-13.71-8.44-28.1-14.92-44.85-12.88-2.61.32-5.24.76-7.75,1.52-13.26,4.03-24.86,2.61-34.4-8.76-5.84-6.95-10.32.95-14.95,2.9-1.64.69-3.09,6.19-2.05,8.09,3.98,7.32,9,14.08,14.03,21.64Z"/>
  <path class="cls-2" d="M335.83,738.01c7.5,8.55,14.05,16.4,21.01,23.87,22.13,23.71,45.79,45.57,75.35,59.96,3.8,1.85,7.65,3.98,11.71,4.75,2.64.5,5.71-1.24,8.58-1.97-1.68-2.22-2.9-5.19-5.11-6.52-14.89-8.94-30.9-16.29-44.82-26.52-22.91-16.84-41.72-38.14-59.72-60.15-6.52-7.97-.93-13.39,1.16-21.92,5.56,6.65,9.83,11.86,14.21,16.98,26.01,30.34,54.59,57.73,90.57,76.13,8.64,4.42,18.04,7.46,27.29,10.51,1.76.58,4.49-1.77,6.77-2.76-1.28-1.91-2.2-5.06-3.89-5.55-36.6-10.63-64.93-33.93-91.1-60.11-12.5-12.51-23.56-26.48-35.08-39.95-4.61-5.39-4.77-15.23-.32-20.2.71-.8,4.96-.11,5.74,1.08,14.98,23.05,33.55,42.95,53.78,61.34,15.28,13.9,30.88,27.84,50.4,35.34,10.14,3.9,21.44,6.09,32.32,6.49,25.12.93,50.3-.14,75.44.41,27.5.6,48.33-13.48,68.3-29.61,8.42-6.8,16.11-14.51,24.18-21.75,1.09-.98,2.46-1.67,5.17-3.47-.4,3.36-.37,5.28-.88,7.06-6.91,24.45-13.97,48.86-20.8,73.33-1.56,5.58-4.81,8.13-10.22,10.58-21.4,9.71-42.11,20.92-63.5,30.66-11.23,5.11-23.25,8.59-35.1,12.17-2.54.77-6.23-.6-8.84-2-13.04-7-26.37-13.63-38.68-21.78-11.79-7.8-23.51-10.27-36.76-5.39-1.73.64-3.59.95-5.34,1.54q-17.12,5.8-29.3-8.35c-10.83-12.66-20.64-26.61-36.87-32.99-21.83-8.58-34.51-27.36-49.22-43.72-4.97-5.53-.37-11.51,3.56-17.48Z"/>
  <path class="cls-2" d="M846.92,825.39c-1.35,1.73-2.55,3.61-4.08,5.18-42.66,43.8-92.2,77.45-148.63,101.06-6.69,2.8-12.55,1.7-18.34-.62-32.64-13.02-65.17-26.34-97.69-39.64-1.78-.73-3.25-2.21-6.1-4.2,20.37-9.98,39.39-19.6,58.69-28.64,17.54-8.22,35.61-15.33,55.21-16.46,10.26-.59,20.61.27,30.91.68,40.32,1.59,79.8-3.18,118.36-15.22,3.59-1.12,7.1-2.5,10.65-3.76.35.54.7,1.08,1.05,1.63Z"/>
  <path class="cls-2" d="M313.49,296.69c-11.48,7.23-11.98,8.6-4.52,19.23,14.34,20.44,34.23,31.73,58.95,34.66,1.76.21,3.51.52,6.14.92-.85,2.16-1.05,4.11-2.12,5.21-17.88,18.21-37.82,29.71-65.1,24.38-26.08-5.1-51.87-2.81-75.15,11.57-7.98,4.93-14.88,11.61-22.31,17.51-8.03-5.7-10.3-14.1-2.89-20.42,12.2-10.41,19.11-22.52,20.66-38.35.53-5.41,3.9-5.76,8.52-2.61,19.79,13.47,41.45,21.06,65.72,19.1,3.98-.32,10.69,1.01,10-5.77-.57-5.6-.41-11.94-9.59-13.96-22.46-4.93-40.75-18.4-58.24-32.67-1.35-1.11-1.14-5.08-.48-7.39.5-1.74,2.63-3.42,4.43-4.32,10.65-5.32,15.18-14.62,18.32-25.5,3.19-11.05,5.36-11.29,15.8-6.64,24.51,10.93,49.56,19.93,76.92,20.38,21.77.36,39.44-8.55,54.62-23.34,6.25-6.09,12.05-12.66,18.36-18.7,10.67-10.2,15.52-10.49,27.8-2.17,3.24,2.2,6.3,4.65,9.96,7.36-1.38,1.32-2.1,2.5-3.13,2.92-15.39,6.27-26.44,17.65-34.87,31.34-22.63,36.75-75.18,40.43-100.18,22.53-6.16-4.41-11.52-9.93-17.63-15.27Z"/>
  <path class="cls-2" d="M691.79,353.9c13.96-5.25,27.6-9.29,40.21-15.43,12.61-6.14,21.48-16.86,28.05-29.4,3.01-5.74-1.14-8.06-4.62-9.86-1.98-1.02-6.36-.59-7.74.93-21.93,24.21-48.64,26.38-77.87,17.49-13.36-4.06-23.95-11.81-32.07-23.32-10.98-15.57-22.22-31.02-41.96-37.33l.12-2.63c6.62-3.99,12.94-8.66,19.99-11.64,2.91-1.23,8.19.08,10.93,2.17,6.27,4.76,11.8,10.54,17.33,16.21,11.35,11.63,23.14,22.41,39.16,27.5,20.41,6.49,40.5,3.44,60.14-2.43,14.63-4.37,28.78-10.45,42.88-16.39,6.14-2.59,9.51-1.28,11.68,4.64.91,2.48,2.23,4.87,2.75,7.43,1.89,9.44,7.18,16,15.39,21.02,10.28,6.29,10.35,9.75.96,16.59-17.55,12.79-35.2,25.35-57.19,29.8-7.24,1.46-4.42,8.73-5.88,13.34-.28.88,4.08,4.45,6.58,4.8,23.35,3.25,44.43-3.58,64.23-15.42,3.13-1.87,6.14-3.92,10.4-6.65,1.61,3.97,3.97,7.2,4.08,10.51.43,12.89,6.01,22.26,16.17,30.2,8.83,6.9,9.72,14.86,3.99,21.24-1.22,1.36-5.79,1.97-6.74.96-28.53-30.33-64.1-32.96-102-26.19-21.55,3.85-45.54-10.82-58.89-27.83-.27-.35-.14-1.01-.06-.33Z"/>
  <path class="cls-2" d="M537.22,961.04c-41.25,16.44-214.81-36.08-249.41-75.63,5.43-1.93,11.36-2.6,15.34-5.73,10.42-8.21,17.53-4.34,27.21,2.54,15.83,11.26,33.51,19.97,50.63,29.35,1.56.85,5.86-.54,7.02-2.2,6.96-9.93,6.35-10.94-4.22-16.97-17.39-9.92-32.65-22.41-45.23-38.14-3.21-4.02-3.9-7.65-2.24-12.38,1.21-3.45,2.29-7.23,2.14-10.81-.29-6.8,3.1-8.78,9.08-9.03,15.24-.63,27.96,4.15,37.79,16.25,21.1,25.96,44.58,49.56,70.8,70.38,24.5,19.46,50.41,36.73,78.67,50.33.66.32,1.16.96,2.43,2.04Z"/>
  <path class="cls-2" d="M207.92,614.45c3.24,48.7,7.83,95.69,32.59,137.52-7.38,5.76-12.82,5.91-19.3-.51-12.71-12.6-24.28-25.74-30.92-42.68-2.28-5.81-16.01-8.74-19.83-4.09-1.4,1.7-1.13,5.52-.45,8.07,5.79,21.91,15.88,41.47,32.78,56.94,4.07,3.73,5.76,6.44,2.04,11.8-2.9,4.18-3.7,9.79-5.66,14.68-.61,1.53-1.73,3.15-3.07,3.95-.54.32-2.66-1.23-3.5-2.35-23.67-31.36-44.09-64.62-58.71-101.23-6.02-15.06-4.63-25.17,7.74-35.62,11.44-9.66,24.42-17.52,36.76-26.11,9.25-6.45,18.56-12.81,29.52-20.36Z"/>
  <path class="cls-2" d="M101.27,543.23c6.88,2.87,12,6.45,17.44,7,14.62,1.48,29.36,2.02,44.06,2.24,8.15.12,16.32-1.66,24.48-1.67,10.05-.02,13.52,4.33,13.71,14.25.26,13.52-6.41,23.27-16.66,30.75-9.15,6.69-19.06,12.33-28.36,18.83-13.11,9.15-25.97,18.67-39.84,28.69-9.4-31.7-13.28-64.87-14.83-100.08Z"/>
  <path class="cls-2" d="M833.27,795.06c2.7-10.51,5.08-20.16,7.65-29.77,20.49-76.71,40.99-153.42,61.54-230.11,7.06-26.32,14.48-52.55,21.29-78.93,1.67-6.47,4.74-7.17,10.31-5.58,5.87,1.68,6.2,4.81,4.74,10.18-13.89,51.07-27.48,102.22-41.2,153.34-12.14,45.24-24.32,90.46-36.48,135.69-2.82,10.48-5.67,20.95-8.45,31.43-3.01,11.33-4.7,12.66-19.39,13.74Z"/>
  <path class="cls-2" d="M651.3,946.29c-9.82,2.43-19.58,5.12-29.47,7.21-9.58,2.02-19.37,3.02-28.9,5.22-9.15,2.11-17-.12-25.04-4.33-40.9-21.42-76.78-49.64-110.52-80.82-.52-.48-.64-1.37-1.21-2.67,7.45-4.27,14.82-3.48,21.73.34,39.19,21.67,80.19,39.39,121.95,55.35,15.3,5.85,31.07,10.5,46.61,15.74,1.64.55,3.18,1.43,4.76,2.15.04.6.07,1.2.11,1.8Z"/>
  <path class="cls-2" d="M769.83,794.69c1.17-5.53,1.74-9,2.64-12.38,9.57-35.7,19.6-71.29,28.55-107.15,2.78-11.13,6.32-19.02,19.31-19.31,5.6-.12,11.17-1.87,18.15-3.13-.93,4.64-1.36,7.63-2.14,10.53-9.76,36.48-19.65,72.93-29.29,109.45-1.41,5.34-3.95,8.79-9.21,10.73-8.77,3.24-17.36,6.94-28.01,11.26Z"/>
  <path class="cls-2" d="M287.51,407.54c5.96.9,16.91,2.56,27.87,4.24,5.39.83,4.71,4.11,2.79,7.53-4.28,7.63-11.51,10.17-19.62,11.83-12.92,2.63-26.13,4.76-38.44,9.22-18.39,6.67-30.91,20.73-40.46,37.52-3.65,6.41-5.54,6.38-10.14.75-7.64-9.37-7.21-29.45.36-38.57,19.05-22.94,43.36-32.82,77.65-32.52Z"/>
  <path class="cls-2" d="M849.06,483.22c-3.1-4.75-6.19-9.57-9.37-14.34-12.21-18.32-29.53-29.08-50.75-33.79-7.98-1.77-16.11-2.84-24.16-4.33-7.56-1.4-14.12-4.48-17.79-11.73-1.65-3.26-1.68-6.2,2.85-7.19,30.26-6.63,60-7.79,86.77,11.09,7.63,5.38,14.46,12.43,20.17,19.86,9.54,12.41,5.32,33.07-7.73,40.44Z"/>
  <path class="cls-2" d="M914.77,611.75c3.75-14.22,7.45-28.45,11.25-42.65,7.24-27.06,14.53-54.1,21.82-81.14.55-2.03.75-4.43,1.99-5.93,1.54-1.85,3.99-2.94,6.05-4.36,1.31,1.98,3.66,3.91,3.76,5.95,1.11,22.68,3.51,45.47,2.16,68.03-.91,15.26-7.2,30.21-11.24,45.26-.37,1.37-1.66,2.95-2.93,3.53-10.22,4.61-20.54,9.01-30.84,13.47l-2.02-2.16Z"/>
  <path class="cls-2" d="M881.32,446.15c7.22,6.64,14.53,13.19,21.53,20.05.92.9.7,3.54.27,5.17-10.03,37.8-20.16,75.56-30.28,113.33-.27,1.02-.59,2.04-.99,3.01-1.59,3.91-3.21,7.8-4.83,11.7-2.8-2.96-5.62-5.9-8.4-8.88-4.81-5.15-9.21-10.32-3.94-17.82.79-1.12.59-3.12.45-4.67-1.15-12.33,2.63-22.7,8.96-33.54,4.54-7.77,3.78-18.67,5.27-28.19.52-3.31-.31-7.21,1.15-9.94,8.24-15.37,15.33-30.81,8.71-49.06.7-.39,1.41-.78,2.11-1.17Z"/>
  <path class="cls-2" d="M275.73,791.6c11.2.3,21.63,3.53,30.1,10.72,11.23,9.55,11.51,36.66.61,46.61-3,2.73-7.87,4.79-11.88,4.8-18.33.02-36.92-14.8-41.73-32.36-4.9-17.9,4.48-30.09,22.91-29.77Z"/>
  <path class="cls-2" d="M254.63,579.59c.29-3.57-.48-7.68,1.03-10.61,6.99-13.53,13.01-28.02,22.42-39.72,11.36-14.13,16.61-28.72,15.81-46.6-.96-21.38,3.68-25.85,24.9-26.58,1.37-.05,3.97,2.59,4.07,4.11,1.22,18.8,2.23,37.84-6.49,55.24-3.67,7.32-9.36,14-15.36,19.67-7.25,6.86-16.45,11.68-23.62,18.61-6.33,6.13-11.04,13.93-16.42,21.03-1.33,1.75-2.48,3.64-3.71,5.47-.88-.21-1.76-.41-2.65-.62Z"/>
  <path class="cls-2" d="M744.32,455.73c5.33,1.27,10.13,2.59,14.99,3.53,11.33,2.19,11.81,2.64,11.92,14.45.05,5.55-.05,11.1-.05,16.65,0,12.89,4.42,23.75,12.36,34.19,9.19,12.08,16.79,25.47,24.18,38.79,2.63,4.74,5.25,10.96-.41,18.24-8.46-23.98-29.1-34.35-45.9-48.79-6.62-5.69-11.45-14.5-14.74-22.82-6.22-15.75-5.89-32.59-4.31-49.28.16-1.67,1.26-3.25,1.96-4.96Z"/>
  <path class="cls-2" d="M735.9,809.92c-.33-.92-2.23-3.41-1.74-5.27,9.98-38.06,19.78-76.18,30.62-114,5.21-18.17,12.49-35.74,18.87-53.57,1.27-3.53,2.46-7.44,7.65-5.66,5.23,1.8,3.52,5.76,2.6,9.25-6.88,26.04-13.82,52.07-20.77,78.1-7.23,27.04-14.76,54.01-21.57,81.15-1.9,7.58-5.53,11.02-15.66,9.99Z"/>
  <path class="cls-2" d="M721.68,780.74c-6.92-9.16-14.04-18.18-20.57-27.61-1.16-1.68-.31-5.16.32-7.62,3.66-14.08,7.44-28.12,11.43-42.11.59-2.07,2.11-4.84,3.85-5.47,10.04-3.65,20.28-6.75,32.14-10.59-8.38,31.28-16.62,62.07-24.86,92.85l-2.32.54Z"/>
  <path class="cls-2" d="M798.77,470.2c20.76,9.83,37.82,20.98,46.8,41.42,2.55,5.8,2.28,10.27-3.47,14.4-2.9,2.09-4.57,6.1-6.37,9.47-1.65,3.1-2.72,6.51-4.04,9.78-.7-.03-1.4-.05-2.1-.08-.95-3.06-1.32-6.48-2.97-9.1-6.01-9.54-11.62-19.54-18.95-27.99-9.49-10.94-10.14-23.06-8.91-37.9Z"/>
  <path class="cls-2" d="M266.36,472.16c.77,11.37,1.9,22.96-6.49,32.61-9.92,11.41-19.87,22.68-23.31,38.03-.23,1.03-.79,2-1.19,2.99-.78-.24-1.56-.49-2.34-.73-.83-2.24-1.36-4.66-2.55-6.69-2.69-4.62-6.03-8.88-8.48-13.62-1.64-3.17-3.62-7.21-2.95-10.33,2.41-11.35,9.86-19.79,18.8-26.6,8.28-6.31,17.22-11.75,25.87-17.58l2.64,1.92Z"/>
  <path class="cls-2" d="M103.98,475.39c5.35-24.3,10.69-48.59,16.09-73.13,2.61.35,4.1.11,4.51.67,7.32,9.96,14.86,19.79,21.44,30.22,1.48,2.34.86,8.26-1.1,10.16-12.18,11.8-25.01,22.92-37.63,34.26-1.11-.73-2.21-1.46-3.32-2.18Z"/>
  <path class="cls-2" d="M282.61,781.91c-2.75.12-5.5.28-8.25.36-24.34.65-37.47,18.87-30.33,42.36,4.09,13.47,11.75,24.15,24.89,30.29,1.1.51,2,1.45,3.19,2.33-8.71,4.46-25.45-3.07-35.13-15.34-12.88-16.32-14.31-38.85-3.24-51.3,12-13.51,35.26-18.48,48.87-8.69Z"/>
  <path class="cls-2" d="M318,557.98c3.65,16.9,6.81,30.97,9.54,45.13.22,1.13-2.77,4.23-3.77,4.02-12.11-2.57-24.47-4.92-33.8-13.98-1.49-1.45-2.39-6.12-1.37-7.15,8.97-9.11,18.44-17.73,29.39-28.02Z"/>
  <path class="cls-2" d="M736.79,607.37c3.06-15.11,5.76-29,8.72-42.83.82-3.83,3.37-4.65,6.38-1.91,8.01,7.28,16.11,14.47,23.73,22.14,1.4,1.41,1.91,6.2.79,7.25-10.79,10.1-24.13,13.89-39.62,15.36Z"/>
  <path class="cls-2" d="M153,479.83c0,13.1.19,26.21-.24,39.3-.05,1.67-3.27,4.53-5.11,4.61-6.56.26-13.3.29-19.71-.95-9.16-1.77-12.82-10.53-6.61-17.34,8.95-9.81,19.36-18.28,29.15-27.33.84.57,1.68,1.14,2.52,1.71Z"/>
  <path class="cls-2" d="M715.38,672.46c3.99-10.7,7.48-20.2,11.13-29.63.43-1.12,1.59-2.47,2.65-2.74,7.73-1.92,15.52-3.58,23.71-5.42-2.47,15.07-20.87,33.76-37.49,37.79Z"/>
  <path class="cls-2" d="M327.49,665.47c-11.48-6.75-16.36-15.74-18.79-26.31-.89-3.87,1.03-5.45,4.91-4.49,1.79.44,3.59.85,5.35,1.41,5.37,1.71,10.72,3.49,16.07,5.24-2.44,7.81-4.87,15.62-7.53,24.15Z"/>
  <path class="cls-2" d="M326.02,766.01c8.75,8.42,17.12,16.48,25.57,24.62-6,3.67-18.18,4.15-21.38,1.09-9.49-9.09-10.49-14.96-4.19-25.71Z"/>
  <path class="cls-2" d="M406.74,449.68c8.02-14.15,32.65-22.43,46.07-17.32-14.54,5.46-29.56,11.11-46.07,17.32Z"/>
  <path class="cls-1" d="M594.96,472.81c-11.66,4.81-22.91,9.45-34.73,14.33-.72-2.14-1.61-3.55-1.59-4.94.22-17.21.09-34.44,1.05-51.62.88-15.9,4.3-19.26,20.11-20.86,31.34-3.17,62.5-3.28,92.15,9.57,14.34,6.22,26.06,15.54,31.83,31.16-14.88-9.57-29.42-19.59-47.79-19.48-.49.73-.97,1.45-1.46,2.18,12.61,11.26,25.22,22.52,38.21,34.12.03-.32.17.52-.08.66-15.71,8.66-29.38,21.78-48.95,21.97-8.57.08-22.99-4.5-29.11-10.42,10.86.55,20.87,1.05,30.87,1.56.04-1.43.09-2.86.13-4.29-5.74,0-11.48.23-17.2-.11-2.25-.13-4.43-1.54-6.64-2.36,2.28-1.11,4.48-2.87,6.87-3.21,7.33-1.03,14.75-1.38,22.1-2.26,4.19-.5,5.81-2.63,2.76-6.42-9.92-12.31-39.25-20.36-54.36-14.93-15.01,5.39-16.25,11.23-4.17,25.35ZM664.94,458.99c-5.74-19.59-39.07-34.53-53.68-24.55,22.64-2.12,36.51,14.71,53.68,24.55Z"/>
  <path class="cls-1" d="M483.67,551.83c7.82,4.16,15.35,3.41,22.92-1.5,1.59-1.03,5.55-.08,7.45,1.29,12.57,9.13,24.67,9.15,37.19.28,2.15-1.52,6.54-2.06,8.77-.9,6.2,3.23,11.98,5.13,18.73,1.81,4.67-2.3,6.11,1.27,7.05,4.76,2.65,9.84-9.04,21.43-20.94,19.72-5.58-.8-8.87,1.01-12.56,4.32-13,11.67-26.21,11.6-39.42-.3-3.56-3.21-7.01-3.98-11.86-4.28-5.83-.37-12.26-2.97-16.98-6.53-6.88-5.2-6.44-11.05-.35-18.68Z"/>
  <path class="cls-1" d="M508.91,629.62c-5.56,2.33-12.53,5.24-19.5,8.17-5.52,2.32-11.15,6.31-16.69.59-1.81-1.87-3.65-5.23-3.16-7.37.46-1.96,3.91-3.44,6.28-4.69,3.1-1.63,6.7-2.42,9.6-4.31,4.41-2.87,8.38-6.41,12.58-9.6,8.46-6.43,16.89-10.76,28.41-6.58,5.15,1.87,11.87-.98,17.87-.97,4.48,0,9.5.1,13.32,2.04,6.29,3.19,11.86,7.84,17.64,11.99,4.8,3.45,8.51,8.56,15.69,8.03,1.5-.11,4.76,4.26,4.69,6.5-.14,4.8-8.11,9.28-12.86,7.46-5.9-2.26-11.29-6.26-17.32-7.65-6.68-1.54-14.27-2.61-20.69-.92-8.58,2.26-16.33,3.28-24.6-.35-2.82-1.24-6.15-1.32-11.28-2.33Z"/>
  <path class="cls-1" d="M372.65,556.85c1.2,2.49,2.89,4.86,3.51,7.48,4.28,17.99,7.18,36.4,12.7,54,14.1,44.97,39.85,82.06,78.37,109.82,1.07.77,2.56,1.36,3.1,2.42,1.33,2.63,2.23,5.48,3.3,8.24-2.98-.27-6.69.51-8.83-.98-43.64-30.39-71.84-71.99-86.83-122.57-4.87-16.44-7.68-33.5-11.04-50.35-.48-2.39,1.33-5.24,2.07-7.87,1.22-.06,2.43-.12,3.65-.18Z"/>
  <path class="cls-1" d="M480.18,654.96c12.24,0,21.61-.14,30.97.03,18.49.34,36.98.92,55.47,1.23,3.6.06,7.21-.86,10.82-.99,1.81-.07,3.65.63,5.48.97-.74,1.79-1.03,4.05-2.3,5.31-17.11,17.07-38.38,19.34-60.97,16.9-10.22-1.11-19.73-3.52-27.02-11.61-1.86-2.07-5.04-2.89-7.18-4.77-1.79-1.58-2.95-3.88-5.26-7.07Z"/>
  <path class="cls-1" d="M479.45,710.18c-1.44,1.98-2.25,4.27-3.6,4.64-1.64.45-4.24-.13-5.54-1.27-8.32-7.34-16.87-14.51-24.45-22.57-23.82-25.34-39.24-55.54-49.1-88.65-.71-2.4,1.43-5.65,2.24-8.5,2.12,2.04,5.36,3.71,6.18,6.18,10.88,32.76,26.13,62.98,50.55,87.89,5.91,6.03,12.51,11.37,18.74,17.08,1.68,1.55,3.17,3.31,4.97,5.2Z"/>
  <path class="cls-1" d="M532.43,729.1c12.28,2.19,24.27,3.97,36.04,6.71,2.5.58,6.26,5.12,5.84,7.07-1.15,5.38-5.14,2.82-8.8,1.67-22.09-6.93-44.32-7.02-66.34.15-4.1,1.33-7.69,2.46-8.92-2.12-.45-1.67,3.18-6.05,5.55-6.59,12.04-2.76,24.28-4.66,36.62-6.89Z"/>
  <path class="cls-1" d="M532.89,711.51c5.82.35,11.4.31,16.81,1.22,1.85.31,3.29,3.01,4.92,4.62-1.99,1.52-3.92,4.26-5.97,4.35-10.73.47-21.5.51-32.24.1-2.12-.08-4.14-2.83-6.2-4.35,1.88-1.65,3.57-4.41,5.66-4.75,5.68-.94,11.52-.87,17.02-1.18Z"/>
  <path class="cls-1" d="M373.09,526.17c0,3.68.55,7.47-.2,10.99-.46,2.17-2.89,3.93-4.43,5.87-1.6-1.68-4.43-3.27-4.57-5.07-.65-8.1-.81-16.27-.49-24.39.07-1.87,2.7-3.63,4.16-5.45,1.72,1.82,4.54,3.42,4.94,5.5.79,4.05.23,8.36.23,12.56.12,0,.25,0,.37,0Z"/>
  <path class="cls-1" d="M531.98,702.34c-1.84,0-3.97.6-5.44-.14-2.19-1.1-3.91-3.13-5.83-4.77,2.01-1.5,3.84-3.86,6.06-4.31,3.52-.72,7.41-.68,10.94.05,2.26.46,4.15,2.73,6.21,4.18-2.14,1.66-4.11,3.69-6.49,4.85-1.49.72-3.61.13-5.45.14Z"/>
  <path class="cls-2" d="M664.94,458.99c-17.17-9.84-31.04-26.67-53.68-24.55,14.61-9.97,47.94,4.97,53.68,24.55Z"/>
</svg>